<svg width="187" height="181" viewBox="0 0 187 181" fill="none" xmlns="http://www.w3.org/2000/svg">
<path d="M186.019 10.0909C186.019 6.97126 184.51 4.04311 181.987 2.22991C180.957 1.50913 179.842 0.946025 178.659 0.568743C177.477 0.191462 176.244 0 174.988 0H32.4767C30.1849 0 27.9099 0.641949 26.0798 2.00467C25.528 2.42137 24.9818 2.90564 24.4637 3.50253C23.9682 4.07127 23.5627 4.6569 23.2361 5.22564C22.3239 6.84176 21.9185 8.70001 21.9185 10.5583V77.5961L43.3559 84.4885C48.5422 56.8175 71.4268 35.9825 98.76 33.6456C125.446 31.3651 149.879 47.2672 160.223 70.5854C170.77 94.388 164.863 121.924 148.437 138.733C133.064 154.466 112.573 156.606 104.65 156.887C94.2833 157.248 85.8367 155.074 80.4534 153.221C74.7041 150.102 68.0482 145.895 61.1388 140.276C56.3186 136.362 52.2361 132.437 48.7955 128.766C47.461 127.341 45.6084 126.536 43.66 126.553L21.9185 126.744V171.01C21.9185 173.606 23.0616 176.078 25.0493 177.756L25.1056 177.79C25.2971 177.953 25.4829 178.105 25.6744 178.251C27.848 179.873 30.5396 180.662 33.2425 180.662H174.442C177.212 180.662 179.966 179.896 182.212 178.28C182.421 178.128 182.629 177.964 182.838 177.79C183.913 176.906 184.758 175.813 185.338 174.586C185.923 173.358 186.233 172.007 186.233 170.616L186.025 10.0853L186.019 10.0909ZM62.3664 22.1357H37.0604V13.0585H62.3664V22.1357ZM146.371 23.2C143.178 23.2 140.576 20.6097 140.576 17.4169C140.576 14.2241 143.172 11.6225 146.371 11.6225C149.569 11.6225 152.154 14.2128 152.154 17.4169C152.154 20.621 149.564 23.2 146.371 23.2ZM165.933 24.9513C161.766 24.9513 158.393 21.5783 158.393 17.4169C158.393 13.2555 161.766 9.87689 165.933 9.87689C170.1 9.87689 173.467 13.2499 173.467 17.4169C173.467 21.5839 170.094 24.9513 165.933 24.9513Z" fill="#006C76"/>
<path d="M81.0898 50.6853C83.3366 55.7307 87.8471 59.222 92.6729 59.4247C99.4865 59.7063 106.396 53.3882 106.779 44.5305C111.864 44.8571 124.1 46.3268 135.981 55.1789C145.177 62.0262 149.975 70.1688 152.21 74.6793C146.264 77.2977 140.323 79.9161 134.377 82.5346C133.96 81.1268 133.172 79.0771 131.629 76.9429C129.849 74.4765 127.839 72.9674 126.521 72.134C126.944 73.3109 135.936 99.8558 119.42 118.844C109.234 130.556 92.3519 135.94 78.3418 132.865C56.8143 128.146 52.3601 105.735 24.9537 99.7375C18.8834 98.4086 13.669 98.3185 10.1834 98.4593C4.31581 99.1688 -0.2172 94.5963 0.00804276 90.3393C0.188237 86.8762 3.52182 83.4581 8.07736 83.0245C9.73852 82.7148 12.5597 82.2981 16.0397 82.3882C43.9585 83.0921 57.535 114.812 73.516 110.251C79.2822 108.606 82.3061 103.116 82.9086 102.012C88.4214 92.0004 81.7205 79.9668 80.8758 78.5028C78.9331 78.7111 76.9904 78.9138 75.0533 79.1222L72.2941 92.0173L53.2948 91.595C53.3568 87.321 54.0663 78.8237 59.1849 69.8872C66.3026 57.4651 77.3001 52.2789 81.0898 50.6965V50.6853Z" fill="#2B2B2B"/>
<path d="M80.2565 140.118C85.6848 140.197 101.046 139.701 116.205 129.199C129.923 119.694 135.88 107.255 138.003 102.114C138.791 104.575 139.76 108.646 139.383 113.686C138.938 119.688 136.809 124.154 135.458 126.53C138.059 124.041 141.444 120.161 144.062 114.699C149.22 103.933 148.156 93.8136 147.452 89.5903C150.155 95.1876 155.747 108.916 150.42 121.541C142.53 140.247 112.883 151.335 80.2565 140.118Z" fill="#006C76"/>
<path d="M18.6244 122.008C23.137 122.008 26.7951 118.35 26.7951 113.838C26.7951 109.325 23.137 105.667 18.6244 105.667C14.1119 105.667 10.4537 109.325 10.4537 113.838C10.4537 118.35 14.1119 122.008 18.6244 122.008Z" fill="#006C76"/>
<path d="M37.415 119.542C39.3805 119.542 40.9739 117.949 40.9739 115.983C40.9739 114.018 39.3805 112.424 37.415 112.424C35.4495 112.424 33.8562 114.018 33.8562 115.983C33.8562 117.949 35.4495 119.542 37.415 119.542Z" fill="#006C76"/>
</svg>
