<svg width="22" height="20" viewBox="0 0 22 20" fill="none" xmlns="http://www.w3.org/2000/svg">
<path d="M3.93025 13.0464C2.67268 13.7835 -0.624604 15.2886 1.38366 17.172C2.36468 18.092 3.45729 18.75 4.83096 18.75H12.6694C14.0431 18.75 15.1357 18.092 16.1167 17.172C18.125 15.2886 14.8277 13.7835 13.5701 13.0464C10.6211 11.3179 6.87924 11.3179 3.93025 13.0464Z" stroke="#4D4D4D" stroke-width="1.5" stroke-linecap="round" stroke-linejoin="round"/>
<path d="M12.7502 4.75C12.7502 6.95914 10.9593 8.75 8.75018 8.75C6.54104 8.75 4.75018 6.95914 4.75018 4.75C4.75018 2.54086 6.54104 0.75 8.75018 0.75C10.9593 0.75 12.7502 2.54086 12.7502 4.75Z" stroke="#4D4D4D" stroke-width="1.5"/>
<path d="M18.3723 2.31564C18.5959 2.07342 18.7076 1.95232 18.8264 1.88168C19.113 1.71123 19.4659 1.70593 19.7573 1.8677C19.8781 1.93474 19.9933 2.05244 20.2237 2.28783C20.4541 2.52322 20.5693 2.64092 20.635 2.76428C20.7933 3.06194 20.7881 3.42244 20.6213 3.71521C20.5521 3.83655 20.4336 3.95073 20.1965 4.1791L17.3754 6.89629C16.926 7.32906 16.7014 7.54545 16.4206 7.65512C16.1398 7.76479 15.8311 7.75672 15.2138 7.74057L15.1298 7.73838C14.9419 7.73346 14.8479 7.73101 14.7933 7.66901C14.7386 7.60702 14.7461 7.5113 14.761 7.31985L14.7691 7.2159C14.8111 6.67706 14.8321 6.40765 14.9373 6.16547C15.0425 5.92328 15.224 5.72664 15.587 5.33335L18.3723 2.31564Z" stroke="#4D4D4D" stroke-width="1.5" stroke-linejoin="round"/>
</svg>
