<svg width="22" height="22" viewBox="0 0 22 22" fill="none" xmlns="http://www.w3.org/2000/svg">
<path d="M11.5906 0.639652C11.5906 0.639652 14.5906 4.59027 14.5906 10.5902C14.5906 16.5902 11.5906 20.5409 11.5906 20.5409M9.59058 20.5409C9.59058 20.5409 6.59058 16.5902 6.59058 10.5902C6.59058 4.59027 9.59058 0.639652 9.59058 0.639652M1.22021 14.0903H19.961M1.22021 7.09033H19.961M0.590576 10.5903C0.590576 16.1131 5.06773 20.5903 10.5906 20.5903C16.1134 20.5903 20.5906 16.1131 20.5906 10.5903C20.5906 5.06748 16.1134 0.590332 10.5906 0.590332C5.06773 0.590332 0.590576 5.06748 0.590576 10.5903Z" stroke="#1F1D1D" stroke-width="1.1811" stroke-linecap="round" stroke-linejoin="round"/>
</svg>
