<svg width="24" height="25" viewBox="0 0 24 25" fill="none" xmlns="http://www.w3.org/2000/svg">
<rect x="0.5" y="0.5" width="23" height="23.6667" rx="11.5" fill="url(#paint0_linear_211_1960)"/>
<rect x="0.5" y="0.5" width="23" height="23.6667" rx="11.5" stroke="#F3F8F4"/>
<path d="M12.998 7C13.2385 7 13.4746 7.06506 13.6811 7.18829C13.8877 7.31152 14.0571 7.48834 14.1713 7.7L14.4953 8.3C14.6096 8.51166 14.779 8.68848 14.9855 8.81171C15.1921 8.93494 15.4281 9 15.6687 9H17C17.3536 9 17.6928 9.14048 17.9428 9.39052C18.1929 9.64057 18.3333 9.97971 18.3333 10.3333V16.3333C18.3333 16.687 18.1929 17.0261 17.9428 17.2761C17.6928 17.5262 17.3536 17.6667 17 17.6667H6.33333C5.97971 17.6667 5.64057 17.5262 5.39052 17.2761C5.14048 17.0261 5 16.687 5 16.3333V10.3333C5 9.97971 5.14048 9.64057 5.39052 9.39052C5.64057 9.14048 5.97971 9 6.33333 9H7.66467C7.90495 9.00001 8.14077 8.9351 8.34719 8.81211C8.55361 8.68913 8.72296 8.51265 8.83733 8.30133L9.16333 7.69867C9.27771 7.48735 9.44706 7.31087 9.65348 7.18789C9.8599 7.0649 10.0957 6.99999 10.336 7H12.998Z" stroke="#EAEFE9" stroke-width="0.833333" stroke-linecap="round" stroke-linejoin="round"/>
<path d="M11.6667 15C12.7712 15 13.6667 14.1046 13.6667 13C13.6667 11.8954 12.7712 11 11.6667 11C10.5621 11 9.66667 11.8954 9.66667 13C9.66667 14.1046 10.5621 15 11.6667 15Z" stroke="#EAEFE9" stroke-width="0.833333" stroke-linecap="round" stroke-linejoin="round"/>
<defs>
<linearGradient id="paint0_linear_211_1960" x1="0" y1="12.3333" x2="24" y2="12.3333" gradientUnits="userSpaceOnUse">
<stop offset="1" stop-color="#1C5941"/>
</linearGradient>
</defs>
</svg>
