<svg width="18" height="18" viewBox="0 0 18 18" fill="none" xmlns="http://www.w3.org/2000/svg">
<path fill-rule="evenodd" clip-rule="evenodd" d="M5.28267 0.110456C3.81758 0.176561 2.54772 0.534757 1.52234 1.55581C0.493374 2.58223 0.139627 3.85712 0.0733573 5.30697C0.0321626 6.2119 -0.208722 13.0484 0.489793 14.8413C0.960842 16.0509 1.88859 16.9809 3.1092 17.4534C3.67876 17.675 4.32893 17.8249 5.28267 17.8687C13.2574 18.2296 16.2135 18.0331 17.4601 14.8413C17.6813 14.2732 17.8335 13.6236 17.8756 12.6722C18.2401 4.67702 17.8165 2.94402 16.4267 1.55581C15.3243 0.456142 14.0275 -0.292428 5.28267 0.110456ZM5.35609 16.2607C4.48294 16.2214 4.00921 16.0759 3.69309 15.9536C2.89786 15.6445 2.30054 15.0496 1.99338 14.259C1.46143 12.8967 1.63786 6.42645 1.68532 5.37948C1.73189 4.35395 1.93965 3.41669 2.66324 2.69311C3.55877 1.79979 4.71578 1.36199 12.5938 1.71753C13.6218 1.76398 14.5613 1.97132 15.2866 2.69311C16.1822 3.58642 16.6264 4.75234 16.2646 12.6001C16.2252 13.4711 16.0792 13.9437 15.9565 14.259C15.1461 16.336 13.2815 16.6243 5.35609 16.2607ZM12.6806 4.22065C12.6806 4.81203 13.1616 5.29291 13.7553 5.29291C14.349 5.29291 14.8308 4.81203 14.8308 4.22065C14.8308 3.62928 14.349 3.14882 13.7553 3.14882C13.1616 3.14882 12.6806 3.62928 12.6806 4.22065ZM4.37638 8.98914C4.37638 11.5226 6.43522 13.5766 8.97494 13.5766C11.5147 13.5766 13.5735 11.5226 13.5735 8.98914C13.5735 6.4557 11.5147 4.40302 8.97494 4.40302C6.43522 4.40302 4.37638 6.4557 4.37638 8.98914ZM5.99013 8.98914C5.99013 7.34544 7.32627 6.01185 8.97494 6.01185C10.6236 6.01185 11.9598 7.34544 11.9598 8.98914C11.9598 10.6337 10.6236 11.9677 8.97494 11.9677C7.32627 11.9677 5.99013 10.6337 5.99013 8.98914Z" fill="#1F1D1D"/>
</svg>
