<svg width="24" height="24" viewBox="0 0 24 24" fill="none" xmlns="http://www.w3.org/2000/svg">
<path d="M7.03125 10.8369H16.9875V11.9619H7.03125V10.8369ZM7.03125 15.7869H13.125V16.9119H7.03125V15.7869Z" fill="#4D4D4D"/>
<path d="M19.1813 23.0063H4.81875C4.51875 23.0063 4.2375 22.95 3.95625 22.8375C3.69375 22.725 3.45 22.575 3.2625 22.3688C3.05625 22.1625 2.90625 21.9375 2.79375 21.675C2.68125 21.3938 2.625 21.1125 2.625 20.8125V5.86875C2.625 5.56875 2.68125 5.2875 2.79375 5.00625C2.90625 4.74375 3.05625 4.5 3.2625 4.3125C3.46875 4.10625 3.69375 3.95625 3.95625 3.84375C4.2375 3.73125 4.51875 3.675 4.81875 3.675H6.99375V4.78125H4.81875C4.21875 4.78125 3.7125 5.26875 3.7125 5.8875V20.8313C3.7125 21.4313 4.2 21.9375 4.81875 21.9375H19.1625C19.7625 21.9375 20.2687 21.45 20.2687 20.8313V5.86875C20.2687 5.26875 19.7812 4.7625 19.1625 4.7625H17.0062V3.65625H19.1813C19.4813 3.65625 19.7625 3.7125 20.0438 3.825C20.3062 3.9375 20.55 4.0875 20.7375 4.29375C20.9438 4.5 21.0938 4.725 21.2062 4.9875C21.3188 5.26875 21.375 5.55 21.375 5.85V20.7938C21.375 21.0938 21.3188 21.375 21.2062 21.6563C21.0938 21.9188 20.9438 22.1625 20.7375 22.35C20.5312 22.5563 20.3062 22.7063 20.0438 22.8188C19.7625 22.95 19.4813 23.0063 19.1813 23.0063Z" fill="#4D4D4D"/>
<path d="M17.5133 6.97559H6.48828V3.37559C6.48828 2.60684 7.10703 1.98809 7.87578 1.98809H9.30078C9.80703 0.975586 10.857 0.319336 12.0195 0.319336C13.182 0.319336 14.232 0.975586 14.7383 1.98809H16.1633C16.932 1.98809 17.5508 2.60684 17.5508 3.37559L17.5133 6.97559ZM7.59453 5.86934H16.4258V3.37559C16.4258 3.22559 16.2945 3.09434 16.1445 3.09434H13.9508L13.8195 2.71934C13.557 1.95059 12.8258 1.42559 12.0008 1.42559C11.1758 1.42559 10.4445 1.95059 10.182 2.71934L10.0508 3.09434H7.85703C7.70703 3.09434 7.57578 3.22559 7.57578 3.37559V5.86934H7.59453Z" fill="#4D4D4D"/>
</svg>
