<svg width="24" height="24" viewBox="0 0 24 24" fill="none" xmlns="http://www.w3.org/2000/svg">
<g clip-path="url(#clip0_76_888)">
<path d="M15.36 12L15.9563 11.5452L15.9258 11.5052L15.8903 11.4697L15.36 12ZM8.15998 14.88V15.63H8.90998V14.88H8.15998ZM2.39998 14.13C1.98577 14.13 1.64998 14.4658 1.64998 14.88C1.64998 15.2943 1.98577 15.63 2.39998 15.63V14.88V14.13ZM21.12 21.12H20.37C20.37 22.0313 19.6313 22.77 18.72 22.77V23.52V24.27C20.4597 24.27 21.87 22.8597 21.87 21.12H21.12ZM18.72 23.52V22.77C17.8087 22.77 17.07 22.0313 17.07 21.12H16.32H15.57C15.57 22.8597 16.9803 24.27 18.72 24.27V23.52ZM16.32 21.12H17.07C17.07 20.2088 17.8087 19.47 18.72 19.47V18.72V17.97C16.9803 17.97 15.57 19.3803 15.57 21.12H16.32ZM18.72 18.72V19.47C19.6313 19.47 20.37 20.2088 20.37 21.12H21.12H21.87C21.87 19.3803 20.4597 17.97 18.72 17.97V18.72ZM7.67998 21.12H6.92998C6.92998 22.0313 6.19125 22.77 5.27998 22.77V23.52V24.27C7.01968 24.27 8.42998 22.8597 8.42998 21.12H7.67998ZM5.27998 23.52V22.77C4.36871 22.77 3.62998 22.0313 3.62998 21.12H2.87998H2.12998C2.12998 22.8597 3.54028 24.27 5.27998 24.27V23.52ZM2.87998 21.12H3.62998C3.62998 20.2088 4.36871 19.47 5.27998 19.47V18.72V17.97C3.54028 17.97 2.12998 19.3803 2.12998 21.12H2.87998ZM5.27998 18.72V19.47C6.19125 19.47 6.92998 20.2088 6.92998 21.12H7.67998H8.42998C8.42998 19.3803 7.01968 17.97 5.27998 17.97V18.72ZM21.12 21.12V21.87H22.56V21.12V20.37H21.12V21.12ZM22.56 21.12V21.87C23.4825 21.87 24.27 21.0826 24.27 20.16H23.52H22.77C22.77 20.1908 22.7544 20.2462 22.7003 20.3003C22.6461 20.3545 22.5907 20.37 22.56 20.37V21.12ZM23.52 20.16H24.27V17.28H23.52H22.77V20.16H23.52ZM23.52 17.28H24.27C24.27 16.6656 23.8142 16.2344 23.4823 15.9856C23.1032 15.7015 22.6035 15.4471 22.0687 15.224C20.9906 14.7744 19.6203 14.3912 18.3871 14.1446L18.24 14.88L18.0929 15.6155C19.2597 15.8488 20.5294 16.2073 21.4913 16.6085C21.9765 16.8108 22.3468 17.0091 22.5827 17.1859C22.8658 17.3981 22.77 17.4361 22.77 17.28H23.52ZM18.24 14.88L18.3871 14.1446C18.4314 14.1535 18.4089 14.1585 18.3024 14.0871C18.209 14.0244 18.0911 13.9304 17.952 13.805C17.6746 13.5548 17.3611 13.2237 17.0593 12.8826C16.7599 12.5442 16.4834 12.209 16.281 11.9573C16.1801 11.8318 16.0982 11.7279 16.0419 11.6557C16.0137 11.6196 15.9919 11.5915 15.9774 11.5726C15.9701 11.5632 15.9647 11.5561 15.9611 11.5515C15.9594 11.5492 15.9581 11.5475 15.9573 11.5464C15.9569 11.5459 15.9566 11.5455 15.9564 11.5453C15.9563 11.5452 15.9563 11.5452 15.9563 11.5451C15.9563 11.5451 15.9563 11.5451 15.9563 11.5451C15.9563 11.5452 15.9563 11.5452 15.36 12C14.7636 12.4549 14.7637 12.4549 14.7637 12.455C14.7638 12.455 14.7638 12.4551 14.7639 12.4552C14.764 12.4553 14.7641 12.4555 14.7643 12.4557C14.7646 12.4562 14.7651 12.4568 14.7657 12.4576C14.7669 12.4592 14.7686 12.4614 14.7708 12.4642C14.7751 12.4699 14.7814 12.4781 14.7895 12.4886C14.8058 12.5096 14.8293 12.5401 14.8594 12.5787C14.9196 12.6558 15.0061 12.7655 15.1121 12.8974C15.3238 13.1605 15.616 13.515 15.9359 13.8765C16.2533 14.2353 16.6094 14.6141 16.9475 14.919C17.1163 15.0711 17.2927 15.216 17.467 15.3329C17.6282 15.441 17.8469 15.5663 18.0929 15.6155L18.24 14.88ZM15.36 12L15.8903 11.4697C15.4024 10.9818 14.7297 10.29 13.44 10.29V11.04V11.79C14.0702 11.79 14.3575 12.0582 14.8297 12.5304L15.36 12ZM13.44 11.04C13.44 10.29 13.44 10.29 13.4399 10.29C13.4399 10.29 13.4399 10.29 13.4398 10.29C13.4397 10.29 13.4397 10.29 13.4396 10.29C13.4395 10.29 13.4394 10.29 13.4393 10.29C13.4392 10.29 13.439 10.29 13.4389 10.29C13.4387 10.29 13.4386 10.29 13.4384 10.29C13.4382 10.29 13.438 10.29 13.4378 10.29C13.4376 10.29 13.4374 10.29 13.4372 10.29C13.4369 10.29 13.4367 10.29 13.4364 10.29C13.4361 10.29 13.4359 10.29 13.4356 10.29C13.4353 10.29 13.435 10.29 13.4346 10.29C13.4343 10.29 13.434 10.29 13.4336 10.29C13.4333 10.29 13.4329 10.29 13.4326 10.29C13.4322 10.29 13.4318 10.29 13.4314 10.29C13.431 10.29 13.4306 10.29 13.4301 10.29C13.4297 10.29 13.4292 10.29 13.4288 10.29C13.4283 10.29 13.4278 10.29 13.4273 10.29C13.4269 10.29 13.4263 10.29 13.4258 10.29C13.4253 10.29 13.4248 10.29 13.4242 10.29C13.4237 10.29 13.4231 10.29 13.4226 10.29C13.422 10.29 13.4214 10.29 13.4208 10.29C13.4202 10.29 13.4196 10.29 13.419 10.29C13.4183 10.29 13.4177 10.29 13.417 10.29C13.4164 10.29 13.4157 10.29 13.415 10.29C13.4143 10.29 13.4136 10.29 13.4129 10.29C13.4122 10.29 13.4115 10.29 13.4108 10.29C13.41 10.29 13.4093 10.29 13.4085 10.29C13.4077 10.29 13.407 10.29 13.4062 10.29C13.4054 10.29 13.4046 10.29 13.4038 10.29C13.4029 10.29 13.4021 10.29 13.4013 10.29C13.4004 10.29 13.3996 10.29 13.3987 10.29C13.3978 10.29 13.3969 10.29 13.396 10.29C13.3952 10.29 13.3942 10.29 13.3933 10.29C13.3924 10.29 13.3915 10.29 13.3905 10.29C13.3896 10.29 13.3886 10.29 13.3876 10.29C13.3867 10.29 13.3857 10.29 13.3847 10.29C13.3837 10.29 13.3827 10.29 13.3816 10.29C13.3806 10.29 13.3796 10.29 13.3785 10.29C13.3775 10.29 13.3764 10.29 13.3753 10.29C13.3742 10.29 13.3731 10.29 13.372 10.29C13.3709 10.29 13.3698 10.29 13.3687 10.29C13.3676 10.29 13.3664 10.29 13.3653 10.29C13.3641 10.29 13.363 10.29 13.3618 10.29C13.3606 10.29 13.3594 10.29 13.3582 10.29C13.357 10.29 13.3558 10.29 13.3546 10.29C13.3533 10.29 13.3521 10.29 13.3508 10.29C13.3496 10.29 13.3483 10.29 13.347 10.29C13.3458 10.29 13.3445 10.29 13.3432 10.29C13.3419 10.29 13.3405 10.29 13.3392 10.29C13.3379 10.29 13.3366 10.29 13.3352 10.29C13.3339 10.29 13.3325 10.29 13.3311 10.29C13.3297 10.29 13.3284 10.29 13.327 10.29C13.3256 10.29 13.3241 10.29 13.3227 10.29C13.3213 10.29 13.3199 10.29 13.3184 10.29C13.317 10.29 13.3155 10.29 13.314 10.29C13.3126 10.29 13.3111 10.29 13.3096 10.29C13.3081 10.29 13.3066 10.29 13.3051 10.29C13.3035 10.29 13.302 10.29 13.3005 10.29C13.2989 10.29 13.2974 10.29 13.2958 10.29C13.2943 10.29 13.2927 10.29 13.2911 10.29C13.2895 10.29 13.2879 10.29 13.2863 10.29C13.2847 10.29 13.2831 10.29 13.2814 10.29C13.2798 10.29 13.2781 10.29 13.2765 10.29C13.2748 10.29 13.2732 10.29 13.2715 10.29C13.2698 10.29 13.2681 10.29 13.2664 10.29C13.2647 10.29 13.263 10.29 13.2613 10.29C13.2595 10.29 13.2578 10.29 13.2561 10.29C13.2543 10.29 13.2525 10.29 13.2508 10.29C13.249 10.29 13.2472 10.29 13.2454 10.29C13.2436 10.29 13.2418 10.29 13.24 10.29C13.2382 10.29 13.2364 10.29 13.2345 10.29C13.2327 10.29 13.2309 10.29 13.229 10.29C13.2271 10.29 13.2253 10.29 13.2234 10.29C13.2215 10.29 13.2196 10.29 13.2177 10.29C13.2158 10.29 13.2139 10.29 13.212 10.29C13.2101 10.29 13.2081 10.29 13.2062 10.29C13.2042 10.29 13.2023 10.29 13.2003 10.29C13.1983 10.29 13.1964 10.29 13.1944 10.29C13.1924 10.29 13.1904 10.29 13.1884 10.29C13.1864 10.29 13.1844 10.29 13.1823 10.29C13.1803 10.29 13.1783 10.29 13.1762 10.29C13.1742 10.29 13.1721 10.29 13.17 10.29C13.168 10.29 13.1659 10.29 13.1638 10.29C13.1617 10.29 13.1596 10.29 13.1575 10.29C13.1554 10.29 13.1532 10.29 13.1511 10.29C13.149 10.29 13.1468 10.29 13.1447 10.29C13.1425 10.29 13.1404 10.29 13.1382 10.29C13.136 10.29 13.1338 10.29 13.1316 10.29C13.1294 10.29 13.1272 10.29 13.125 10.29C13.1228 10.29 13.1206 10.29 13.1184 10.29C13.1161 10.29 13.1139 10.29 13.1116 10.29C13.1094 10.29 13.1071 10.29 13.1048 10.29C13.1026 10.29 13.1003 10.29 13.098 10.29C13.0957 10.29 13.0934 10.29 13.0911 10.29C13.0888 10.29 13.0864 10.29 13.0841 10.29C13.0818 10.29 13.0794 10.29 13.0771 10.29C13.0747 10.29 13.0724 10.29 13.07 10.29C13.0676 10.29 13.0653 10.29 13.0629 10.29C13.0605 10.29 13.0581 10.29 13.0557 10.29C13.0533 10.29 13.0509 10.29 13.0484 10.29C13.046 10.29 13.0436 10.29 13.0411 10.29C13.0387 10.29 13.0362 10.29 13.0338 10.29C13.0313 10.29 13.0288 10.29 13.0263 10.29C13.0238 10.29 13.0214 10.29 13.0189 10.29C13.0164 10.29 13.0138 10.29 13.0113 10.29C13.0088 10.29 13.0063 10.29 13.0037 10.29C13.0012 10.29 12.9987 10.29 12.9961 10.29C12.9935 10.29 12.991 10.29 12.9884 10.29C12.9858 10.29 12.9833 10.29 12.9807 10.29C12.9781 10.29 12.9755 10.29 12.9729 10.29C12.9703 10.29 12.9676 10.29 12.965 10.29C12.9624 10.29 12.9597 10.29 12.9571 10.29C12.9545 10.29 12.9518 10.29 12.9491 10.29C12.9465 10.29 12.9438 10.29 12.9411 10.29C12.9385 10.29 12.9358 10.29 12.9331 10.29C12.9304 10.29 12.9277 10.29 12.925 10.29C12.9223 10.29 12.9195 10.29 12.9168 10.29C12.9141 10.29 12.9113 10.29 12.9086 10.29C12.9058 10.29 12.9031 10.29 12.9003 10.29C12.8976 10.29 12.8948 10.29 12.892 10.29C12.8892 10.29 12.8864 10.29 12.8836 10.29C12.8808 10.29 12.878 10.29 12.8752 10.29C12.8724 10.29 12.8696 10.29 12.8668 10.29C12.8639 10.29 12.8611 10.29 12.8583 10.29C12.8554 10.29 12.8526 10.29 12.8497 10.29C12.8468 10.29 12.844 10.29 12.8411 10.29C12.8382 10.29 12.8353 10.29 12.8324 10.29C12.8295 10.29 12.8266 10.29 12.8237 10.29C12.8208 10.29 12.8179 10.29 12.815 10.29C12.8121 10.29 12.8091 10.29 12.8062 10.29C12.8032 10.29 12.8003 10.29 12.7973 10.29C12.7944 10.29 12.7914 10.29 12.7885 10.29C12.7855 10.29 12.7825 10.29 12.7795 10.29C12.7765 10.29 12.7735 10.29 12.7705 10.29C12.7675 10.29 12.7645 10.29 12.7615 10.29C12.7585 10.29 12.7555 10.29 12.7524 10.29C12.7494 10.29 12.7464 10.29 12.7433 10.29C12.7403 10.29 12.7372 10.29 12.7342 10.29C12.7311 10.29 12.728 10.29 12.725 10.29C12.7219 10.29 12.7188 10.29 12.7157 10.29C12.7126 10.29 12.7095 10.29 12.7064 10.29C12.7033 10.29 12.7002 10.29 12.6971 10.29C12.694 10.29 12.6909 10.29 12.6877 10.29C12.6846 10.29 12.6815 10.29 12.6783 10.29C12.6752 10.29 12.672 10.29 12.6689 10.29C12.6657 10.29 12.6625 10.29 12.6594 10.29C12.6562 10.29 12.653 10.29 12.6498 10.29C12.6466 10.29 12.6434 10.29 12.6402 10.29C12.637 10.29 12.6338 10.29 12.6306 10.29C12.6274 10.29 12.6242 10.29 12.621 10.29C12.6177 10.29 12.6145 10.29 12.6113 10.29C12.608 10.29 12.6048 10.29 12.6015 10.29C12.5983 10.29 12.595 10.29 12.5917 10.29C12.5885 10.29 12.5852 10.29 12.5819 10.29C12.5786 10.29 12.5754 10.29 12.5721 10.29C12.5688 10.29 12.5655 10.29 12.5622 10.29C12.5589 10.29 12.5556 10.29 12.5522 10.29C12.5489 10.29 12.5456 10.29 12.5423 10.29C12.5389 10.29 12.5356 10.29 12.5323 10.29C12.5289 10.29 12.5256 10.29 12.5222 10.29C12.5189 10.29 12.5155 10.29 12.5121 10.29C12.5088 10.29 12.5054 10.29 12.502 10.29C12.4986 10.29 12.4953 10.29 12.4919 10.29C12.4885 10.29 12.4851 10.29 12.4817 10.29C12.4783 10.29 12.4749 10.29 12.4715 10.29C12.468 10.29 12.4646 10.29 12.4612 10.29C12.4578 10.29 12.4543 10.29 12.4509 10.29C12.4475 10.29 12.444 10.29 12.4406 10.29C12.4371 10.29 12.4337 10.29 12.4302 10.29C12.4268 10.29 12.4233 10.29 12.4198 10.29C12.4164 10.29 12.4129 10.29 12.4094 10.29C12.4059 10.29 12.4024 10.29 12.3989 10.29C12.3955 10.29 12.392 10.29 12.3885 10.29C12.385 10.29 12.3814 10.29 12.3779 10.29C12.3744 10.29 12.3709 10.29 12.3674 10.29C12.3639 10.29 12.3603 10.29 12.3568 10.29C12.3533 10.29 12.3497 10.29 12.3462 10.29C12.3426 10.29 12.3391 10.29 12.3355 10.29C12.332 10.29 12.3284 10.29 12.3248 10.29C12.3213 10.29 12.3177 10.29 12.3141 10.29C12.3106 10.29 12.307 10.29 12.3034 10.29C12.2998 10.29 12.2962 10.29 12.2926 10.29C12.289 10.29 12.2854 10.29 12.2818 10.29C12.2782 10.29 12.2746 10.29 12.271 10.29C12.2674 10.29 12.2638 10.29 12.2601 10.29C12.2565 10.29 12.2529 10.29 12.2493 10.29C12.2456 10.29 12.242 10.29 12.2384 10.29C12.2347 10.29 12.2311 10.29 12.2274 10.29C12.2238 10.29 12.2201 10.29 12.2164 10.29C12.2128 10.29 12.2091 10.29 12.2055 10.29C12.2018 10.29 12.1981 10.29 12.1944 10.29C12.1908 10.29 12.1871 10.29 12.1834 10.29C12.1797 10.29 12.176 10.29 12.1723 10.29C12.1686 10.29 12.1649 10.29 12.1612 10.29C12.1575 10.29 12.1538 10.29 12.1501 10.29C12.1464 10.29 12.1427 10.29 12.139 10.29C12.1352 10.29 12.1315 10.29 12.1278 10.29C12.1241 10.29 12.1203 10.29 12.1166 10.29C12.1129 10.29 12.1091 10.29 12.1054 10.29C12.1016 10.29 12.0979 10.29 12.0941 10.29C12.0904 10.29 12.0866 10.29 12.0829 10.29C12.0791 10.29 12.0753 10.29 12.0716 10.29C12.0678 10.29 12.064 10.29 12.0603 10.29C12.0565 10.29 12.0527 10.29 12.0489 10.29C12.0451 10.29 12.0414 10.29 12.0376 10.29C12.0338 10.29 12.03 10.29 12.0262 10.29C12.0224 10.29 12.0186 10.29 12.0148 10.29C12.011 10.29 12.0072 10.29 12.0034 10.29C11.9996 10.29 11.9957 10.29 11.9919 10.29C11.9881 10.29 11.9843 10.29 11.9805 10.29C11.9766 10.29 11.9728 10.29 11.969 10.29C11.9652 10.29 11.9613 10.29 11.9575 10.29C11.9537 10.29 11.9498 10.29 11.946 10.29C11.9421 10.29 11.9383 10.29 11.9344 10.29C11.9306 10.29 11.9267 10.29 11.9229 10.29C11.919 10.29 11.9152 10.29 11.9113 10.29C11.9074 10.29 11.9036 10.29 11.8997 10.29C11.8958 10.29 11.892 10.29 11.8881 10.29C11.8842 10.29 11.8803 10.29 11.8765 10.29C11.8726 10.29 11.8687 10.29 11.8648 10.29C11.8609 10.29 11.8571 10.29 11.8532 10.29C11.8493 10.29 11.8454 10.29 11.8415 10.29C11.8376 10.29 11.8337 10.29 11.8298 10.29C11.8259 10.29 11.822 10.29 11.8181 10.29C11.8142 10.29 11.8103 10.29 11.8064 10.29C11.8024 10.29 11.7985 10.29 11.7946 10.29C11.7907 10.29 11.7868 10.29 11.7829 10.29C11.7789 10.29 11.775 10.29 11.7711 10.29C11.7672 10.29 11.7632 10.29 11.7593 10.29C11.7554 10.29 11.7515 10.29 11.7475 10.29C11.7436 10.29 11.7396 10.29 11.7357 10.29C11.7318 10.29 11.7278 10.29 11.7239 10.29C11.7199 10.29 11.716 10.29 11.7121 10.29C11.7081 10.29 11.7042 10.29 11.7002 10.29C11.6963 10.29 11.6923 10.29 11.6883 10.29C11.6844 10.29 11.6804 10.29 11.6765 10.29C11.6725 10.29 11.6686 10.29 11.6646 10.29C11.6606 10.29 11.6567 10.29 11.6527 10.29C11.6487 10.29 11.6448 10.29 11.6408 10.29C11.6368 10.29 11.6329 10.29 11.6289 10.29C11.6249 10.29 11.6209 10.29 11.617 10.29C11.613 10.29 11.609 10.29 11.605 10.29C11.601 10.29 11.5971 10.29 11.5931 10.29C11.5891 10.29 11.5851 10.29 11.5811 10.29C11.5771 10.29 11.5732 10.29 11.5692 10.29C11.5652 10.29 11.5612 10.29 11.5572 10.29C11.5532 10.29 11.5492 10.29 11.5452 10.29C11.5412 10.29 11.5372 10.29 11.5332 10.29C11.5292 10.29 11.5252 10.29 11.5212 10.29C11.5172 10.29 11.5132 10.29 11.5092 10.29C11.5052 10.29 11.5012 10.29 11.4972 10.29C11.4932 10.29 11.4892 10.29 11.4852 10.29C11.4812 10.29 11.4772 10.29 11.4732 10.29C11.4692 10.29 11.4652 10.29 11.4612 10.29C11.4572 10.29 11.4532 10.29 11.4492 10.29C11.4451 10.29 11.4411 10.29 11.4371 10.29C11.4331 10.29 11.4291 10.29 11.4251 10.29C11.4211 10.29 11.4171 10.29 11.413 10.29C11.409 10.29 11.405 10.29 11.401 10.29C11.397 10.29 11.393 10.29 11.3889 10.29C11.3849 10.29 11.3809 10.29 11.3769 10.29C11.3729 10.29 11.3688 10.29 11.3648 10.29C11.3608 10.29 11.3568 10.29 11.3528 10.29C11.3487 10.29 11.3447 10.29 11.3407 10.29C11.3367 10.29 11.3327 10.29 11.3286 10.29C11.3246 10.29 11.3206 10.29 11.3166 10.29C11.3125 10.29 11.3085 10.29 11.3045 10.29C11.3005 10.29 11.2965 10.29 11.2924 10.29C11.2884 10.29 11.2844 10.29 11.2804 10.29C11.2763 10.29 11.2723 10.29 11.2683 10.29C11.2643 10.29 11.2602 10.29 11.2562 10.29C11.2522 10.29 11.2482 10.29 11.2442 10.29C11.2401 10.29 11.2361 10.29 11.2321 10.29C11.2281 10.29 11.224 10.29 11.22 10.29C11.216 10.29 11.212 10.29 11.2079 10.29C11.2039 10.29 11.1999 10.29 11.1959 10.29C11.1919 10.29 11.1878 10.29 11.1838 10.29C11.1798 10.29 11.1758 10.29 11.1718 10.29C11.1677 10.29 11.1637 10.29 11.1597 10.29C11.1557 10.29 11.1517 10.29 11.1476 10.29C11.1436 10.29 11.1396 10.29 11.1356 10.29C11.1316 10.29 11.1276 10.29 11.1235 10.29C11.1195 10.29 11.1155 10.29 11.1115 10.29C11.1075 10.29 11.1035 10.29 11.0995 10.29C11.0954 10.29 11.0914 10.29 11.0874 10.29C11.0834 10.29 11.0794 10.29 11.0754 10.29C11.0714 10.29 11.0674 10.29 11.0634 10.29C11.0594 10.29 11.0553 10.29 11.0513 10.29C11.0473 10.29 11.0433 10.29 11.0393 10.29C11.0353 10.29 11.0313 10.29 11.0273 10.29C11.0233 10.29 11.0193 10.29 11.0153 10.29C11.0113 10.29 11.0073 10.29 11.0033 10.29C10.9993 10.29 10.9953 10.29 10.9913 10.29C10.9873 10.29 10.9833 10.29 10.9793 10.29C10.9754 10.29 10.9714 10.29 10.9674 10.29C10.9634 10.29 10.9594 10.29 10.9554 10.29C10.9514 10.29 10.9474 10.29 10.9435 10.29C10.9395 10.29 10.9355 10.29 10.9315 10.29C10.9275 10.29 10.9235 10.29 10.9196 10.29C10.9156 10.29 10.9116 10.29 10.9076 10.29C10.9037 10.29 10.8997 10.29 10.8957 10.29C10.8917 10.29 10.8878 10.29 10.8838 10.29C10.8798 10.29 10.8759 10.29 10.8719 10.29C10.8679 10.29 10.864 10.29 10.86 10.29C10.8561 10.29 10.8521 10.29 10.8481 10.29C10.8442 10.29 10.8402 10.29 10.8363 10.29C10.8323 10.29 10.8284 10.29 10.8244 10.29C10.8205 10.29 10.8165 10.29 10.8126 10.29C10.8086 10.29 10.8047 10.29 10.8008 10.29C10.7968 10.29 10.7929 10.29 10.7889 10.29C10.785 10.29 10.7811 10.29 10.7771 10.29C10.7732 10.29 10.7693 10.29 10.7654 10.29C10.7614 10.29 10.7575 10.29 10.7536 10.29C10.7497 10.29 10.7457 10.29 10.7418 10.29C10.7379 10.29 10.734 10.29 10.7301 10.29C10.7262 10.29 10.7222 10.29 10.7183 10.29C10.7144 10.29 10.7105 10.29 10.7066 10.29C10.7027 10.29 10.6988 10.29 10.6949 10.29C10.691 10.29 10.6871 10.29 10.6832 10.29C10.6793 10.29 10.6755 10.29 10.6716 10.29C10.6677 10.29 10.6638 10.29 10.6599 10.29C10.656 10.29 10.6522 10.29 10.6483 10.29C10.6444 10.29 10.6405 10.29 10.6367 10.29C10.6328 10.29 10.6289 10.29 10.6251 10.29C10.6212 10.29 10.6173 10.29 10.6135 10.29C10.6096 10.29 10.6058 10.29 10.6019 10.29C10.5981 10.29 10.5942 10.29 10.5904 10.29C10.5865 10.29 10.5827 10.29 10.5788 10.29C10.575 10.29 10.5712 10.29 10.5673 10.29C10.5635 10.29 10.5597 10.29 10.5558 10.29C10.552 10.29 10.5482 10.29 10.5444 10.29C10.5405 10.29 10.5367 10.29 10.5329 10.29C10.5291 10.29 10.5253 10.29 10.5215 10.29C10.5177 10.29 10.5139 10.29 10.5101 10.29C10.5063 10.29 10.5025 10.29 10.4987 10.29C10.4949 10.29 10.4911 10.29 10.4873 10.29C10.4835 10.29 10.4798 10.29 10.476 10.29C10.4722 10.29 10.4684 10.29 10.4647 10.29C10.4609 10.29 10.4571 10.29 10.4534 10.29C10.4496 10.29 10.4458 10.29 10.4421 10.29C10.4383 10.29 10.4346 10.29 10.4308 10.29C10.4271 10.29 10.4233 10.29 10.4196 10.29C10.4158 10.29 10.4121 10.29 10.4084 10.29C10.4046 10.29 10.4009 10.29 10.3972 10.29C10.3935 10.29 10.3898 10.29 10.386 10.29C10.3823 10.29 10.3786 10.29 10.3749 10.29C10.3712 10.29 10.3675 10.29 10.3638 10.29C10.3601 10.29 10.3564 10.29 10.3527 10.29C10.349 10.29 10.3453 10.29 10.3417 10.29C10.338 10.29 10.3343 10.29 10.3306 10.29C10.3269 10.29 10.3233 10.29 10.3196 10.29C10.316 10.29 10.3123 10.29 10.3086 10.29C10.305 10.29 10.3013 10.29 10.2977 10.29C10.294 10.29 10.2904 10.29 10.2868 10.29C10.2831 10.29 10.2795 10.29 10.2759 10.29C10.2722 10.29 10.2686 10.29 10.265 10.29C10.2614 10.29 10.2578 10.29 10.2542 10.29C10.2505 10.29 10.2469 10.29 10.2433 10.29C10.2397 10.29 10.2361 10.29 10.2326 10.29C10.229 10.29 10.2254 10.29 10.2218 10.29C10.2182 10.29 10.2147 10.29 10.2111 10.29C10.2075 10.29 10.2039 10.29 10.2004 10.29C10.1968 10.29 10.1933 10.29 10.1897 10.29C10.1862 10.29 10.1826 10.29 10.1791 10.29C10.1756 10.29 10.172 10.29 10.1685 10.29C10.165 10.29 10.1614 10.29 10.1579 10.29C10.1544 10.29 10.1509 10.29 10.1474 10.29C10.1439 10.29 10.1404 10.29 10.1369 10.29C10.1334 10.29 10.1299 10.29 10.1264 10.29C10.1229 10.29 10.1194 10.29 10.116 10.29C10.1125 10.29 10.109 10.29 10.1055 10.29C10.1021 10.29 10.0986 10.29 10.0952 10.29C10.0917 10.29 10.0883 10.29 10.0848 10.29C10.0814 10.29 10.078 10.29 10.0745 10.29C10.0711 10.29 10.0677 10.29 10.0642 10.29C10.0608 10.29 10.0574 10.29 10.054 10.29C10.0506 10.29 10.0472 10.29 10.0438 10.29C10.0404 10.29 10.037 10.29 10.0336 10.29C10.0303 10.29 10.0269 10.29 10.0235 10.29C10.0201 10.29 10.0168 10.29 10.0134 10.29C10.01 10.29 10.0067 10.29 10.0033 10.29C10 10.29 9.99666 10.29 9.99332 10.29C9.98999 10.29 9.98666 10.29 9.98333 10.29C9.98001 10.29 9.97669 10.29 9.97338 10.29C9.97007 10.29 9.96677 10.29 9.96347 10.29C9.96017 10.29 9.95688 10.29 9.9536 10.29C9.95031 10.29 9.94703 10.29 9.94376 10.29C9.94049 10.29 9.93722 10.29 9.93396 10.29C9.9307 10.29 9.92745 10.29 9.9242 10.29C9.92096 10.29 9.91772 10.29 9.91448 10.29C9.91125 10.29 9.90802 10.29 9.9048 10.29C9.90158 10.29 9.89837 10.29 9.89516 10.29C9.89196 10.29 9.88876 10.29 9.88556 10.29C9.88237 10.29 9.87918 10.29 9.876 10.29C9.87282 10.29 9.86965 10.29 9.86649 10.29C9.86332 10.29 9.86016 10.29 9.85701 10.29C9.85386 10.29 9.85071 10.29 9.84757 10.29C9.84443 10.29 9.8413 10.29 9.83818 10.29C9.83505 10.29 9.83194 10.29 9.82883 10.29C9.82572 10.29 9.82261 10.29 9.81952 10.29C9.81642 10.29 9.81333 10.29 9.81025 10.29C9.80717 10.29 9.8041 10.29 9.80103 10.29C9.79796 10.29 9.7949 10.29 9.79185 10.29C9.7888 10.29 9.78575 10.29 9.78271 10.29C9.77968 10.29 9.77665 10.29 9.77362 10.29C9.7706 10.29 9.76759 10.29 9.76458 10.29C9.76157 10.29 9.75857 10.29 9.75558 10.29C9.75258 10.29 9.7496 10.29 9.74662 10.29C9.74364 10.29 9.74067 10.29 9.73771 10.29C9.73475 10.29 9.73179 10.29 9.72884 10.29C9.7259 10.29 9.72296 10.29 9.72002 10.29C9.71709 10.29 9.71417 10.29 9.71125 10.29C9.70834 10.29 9.70543 10.29 9.70253 10.29C9.69963 10.29 9.69673 10.29 9.69385 10.29C9.69096 10.29 9.68809 10.29 9.68522 10.29C9.68235 10.29 9.67949 10.29 9.67663 10.29C9.67378 10.29 9.67094 10.29 9.6681 10.29C9.66526 10.29 9.66243 10.29 9.65961 10.29C9.65679 10.29 9.65398 10.29 9.65118 10.29C9.64837 10.29 9.64558 10.29 9.64279 10.29C9.64 10.29 9.63722 10.29 9.63445 10.29C9.63168 10.29 9.62891 10.29 9.62616 10.29C9.62341 10.29 9.62066 10.29 9.61792 10.29C9.61518 10.29 9.61245 10.29 9.60973 10.29C9.60701 10.29 9.6043 10.29 9.6016 10.29C9.59889 10.29 9.5962 10.29 9.59351 10.29C9.59082 10.29 9.58814 10.29 9.58547 10.29C9.5828 10.29 9.58014 10.29 9.57749 10.29C9.57484 10.29 9.5722 10.29 9.56956 10.29C9.56693 10.29 9.5643 10.29 9.56168 10.29C9.55906 10.29 9.55646 10.29 9.55386 10.29C9.55126 10.29 9.54867 10.29 9.54608 10.29C9.5435 10.29 9.54093 10.29 9.53837 10.29C9.5358 10.29 9.53325 10.29 9.5307 10.29C9.52815 10.29 9.52562 10.29 9.52309 10.29C9.52056 10.29 9.51804 10.29 9.51553 10.29C9.51302 10.29 9.51052 10.29 9.50803 10.29C9.50554 10.29 9.50306 10.29 9.50058 10.29C9.49811 10.29 9.49565 10.29 9.49319 10.29C9.49074 10.29 9.48829 10.29 9.48586 10.29C9.48342 10.29 9.481 10.29 9.47858 10.29C9.47616 10.29 9.47375 10.29 9.47136 10.29C9.46896 10.29 9.46657 10.29 9.46419 10.29C9.46181 10.29 9.45944 10.29 9.45708 10.29C9.45472 10.29 9.45237 10.29 9.45003 10.29C9.44769 10.29 9.44536 10.29 9.44304 10.29C9.44071 10.29 9.4384 10.29 9.4361 10.29C9.4338 10.29 9.43151 10.29 9.42922 10.29C9.42694 10.29 9.42467 10.29 9.42241 10.29C9.42014 10.29 9.41789 10.29 9.41565 10.29C9.4134 10.29 9.41117 10.29 9.40895 10.29C9.40672 10.29 9.40451 10.29 9.40231 10.29C9.4001 10.29 9.39791 10.29 9.39573 10.29C9.39354 10.29 9.39137 10.29 9.38921 10.29C9.38704 10.29 9.38489 10.29 9.38275 10.29C9.3806 10.29 9.37847 10.29 9.37635 10.29C9.37423 10.29 9.37211 10.29 9.37001 10.29C9.36791 10.29 9.36582 10.29 9.36374 10.29C9.36166 10.29 9.35959 10.29 9.35752 10.29C9.35546 10.29 9.35341 10.29 9.35137 10.29C9.34933 10.29 9.34731 10.29 9.34529 10.29C9.34327 10.29 9.34126 10.29 9.33926 10.29C9.33727 10.29 9.33528 10.29 9.3333 10.29C9.33133 10.29 9.32936 10.29 9.3274 10.29C9.32545 10.29 9.3235 10.29 9.32157 10.29C9.31964 10.29 9.31771 10.29 9.3158 10.29C9.31389 10.29 9.31199 10.29 9.3101 10.29C9.30821 10.29 9.30633 10.29 9.30446 10.29C9.30259 10.29 9.30073 10.29 9.29888 10.29C9.29704 10.29 9.2952 10.29 9.29338 10.29C9.29155 10.29 9.28974 10.29 9.28793 10.29C9.28613 10.29 9.28434 10.29 9.28256 10.29C9.28078 10.29 9.27901 10.29 9.27725 10.29C9.27549 10.29 9.27374 10.29 9.27201 10.29C9.27027 10.29 9.26855 10.29 9.26683 10.29C9.26512 10.29 9.26342 10.29 9.26173 10.29C9.26003 10.29 9.25836 10.29 9.25669 10.29C9.25502 10.29 9.25336 10.29 9.25172 10.29C9.25007 10.29 9.24844 10.29 9.24681 10.29C9.24519 10.29 9.24358 10.29 9.24198 10.29C9.24038 10.29 9.23879 10.29 9.23722 10.29C9.23564 10.29 9.23408 10.29 9.23252 10.29C9.23097 10.29 9.22943 10.29 9.2279 10.29C9.22637 10.29 9.22485 10.29 9.22335 10.29C9.22184 10.29 9.22035 10.29 9.21886 10.29C9.21738 10.29 9.21591 10.29 9.21445 10.29C9.21299 10.29 9.21155 10.29 9.21011 10.29C9.20868 10.29 9.20725 10.29 9.20584 10.29C9.20443 10.29 9.20303 10.29 9.20164 10.29C9.20026 10.29 9.19888 10.29 9.19752 10.29C9.19616 10.29 9.19481 10.29 9.19347 10.29C9.19213 10.29 9.1908 10.29 9.18949 10.29C9.18817 10.29 9.18687 10.29 9.18558 10.29C9.18429 10.29 9.18302 10.29 9.18175 10.29C9.18049 10.29 9.17923 10.29 9.17799 10.29C9.17675 10.29 9.17552 10.29 9.17431 10.29C9.17309 10.29 9.17189 10.29 9.1707 10.29C9.16951 10.29 9.16833 10.29 9.16716 10.29C9.166 10.29 9.16485 10.29 9.16371 10.29C9.16257 10.29 9.16144 10.29 9.16032 10.29C9.15921 10.29 9.1581 10.29 9.15702 10.29C9.15593 10.29 9.15485 10.29 9.15378 10.29C9.15272 10.29 9.15167 10.29 9.15063 10.29C9.14959 10.29 9.14857 10.29 9.14755 10.29C9.14654 10.29 9.14554 10.29 9.14455 10.29C9.14356 10.29 9.14259 10.29 9.14163 10.29C9.14067 10.29 9.13972 10.29 9.13878 10.29C9.13785 10.29 9.13693 10.29 9.13602 10.29C9.13511 10.29 9.13421 10.29 9.13333 10.29C9.13245 10.29 9.13158 10.29 9.13072 10.29C9.12986 10.29 9.12902 10.29 9.12819 10.29C9.12736 10.29 9.12654 10.29 9.12574 10.29V11.04V11.79C9.12654 11.79 9.12736 11.79 9.12819 11.79C9.12902 11.79 9.12986 11.79 9.13072 11.79C9.13158 11.79 9.13245 11.79 9.13333 11.79C9.13421 11.79 9.13511 11.79 9.13602 11.79C9.13693 11.79 9.13785 11.79 9.13878 11.79C9.13972 11.79 9.14067 11.79 9.14163 11.79C9.14259 11.79 9.14356 11.79 9.14455 11.79C9.14554 11.79 9.14654 11.79 9.14755 11.79C9.14857 11.79 9.14959 11.79 9.15063 11.79C9.15167 11.79 9.15272 11.79 9.15378 11.79C9.15485 11.79 9.15593 11.79 9.15702 11.79C9.1581 11.79 9.15921 11.79 9.16032 11.79C9.16144 11.79 9.16257 11.79 9.16371 11.79C9.16485 11.79 9.166 11.79 9.16716 11.79C9.16833 11.79 9.16951 11.79 9.1707 11.79C9.17189 11.79 9.17309 11.79 9.17431 11.79C9.17552 11.79 9.17675 11.79 9.17799 11.79C9.17923 11.79 9.18049 11.79 9.18175 11.79C9.18302 11.79 9.18429 11.79 9.18558 11.79C9.18687 11.79 9.18817 11.79 9.18949 11.79C9.1908 11.79 9.19213 11.79 9.19347 11.79C9.19481 11.79 9.19616 11.79 9.19752 11.79C9.19888 11.79 9.20026 11.79 9.20164 11.79C9.20303 11.79 9.20443 11.79 9.20584 11.79C9.20725 11.79 9.20868 11.79 9.21011 11.79C9.21155 11.79 9.21299 11.79 9.21445 11.79C9.21591 11.79 9.21738 11.79 9.21886 11.79C9.22035 11.79 9.22184 11.79 9.22335 11.79C9.22485 11.79 9.22637 11.79 9.2279 11.79C9.22943 11.79 9.23097 11.79 9.23252 11.79C9.23408 11.79 9.23564 11.79 9.23722 11.79C9.23879 11.79 9.24038 11.79 9.24198 11.79C9.24358 11.79 9.24519 11.79 9.24681 11.79C9.24844 11.79 9.25007 11.79 9.25172 11.79C9.25336 11.79 9.25502 11.79 9.25669 11.79C9.25836 11.79 9.26003 11.79 9.26173 11.79C9.26342 11.79 9.26512 11.79 9.26683 11.79C9.26855 11.79 9.27027 11.79 9.27201 11.79C9.27374 11.79 9.27549 11.79 9.27725 11.79C9.27901 11.79 9.28078 11.79 9.28256 11.79C9.28434 11.79 9.28613 11.79 9.28793 11.79C9.28974 11.79 9.29155 11.79 9.29338 11.79C9.2952 11.79 9.29704 11.79 9.29888 11.79C9.30073 11.79 9.30259 11.79 9.30446 11.79C9.30633 11.79 9.30821 11.79 9.3101 11.79C9.31199 11.79 9.31389 11.79 9.3158 11.79C9.31771 11.79 9.31964 11.79 9.32157 11.79C9.3235 11.79 9.32545 11.79 9.3274 11.79C9.32936 11.79 9.33133 11.79 9.3333 11.79C9.33528 11.79 9.33727 11.79 9.33926 11.79C9.34126 11.79 9.34327 11.79 9.34529 11.79C9.34731 11.79 9.34933 11.79 9.35137 11.79C9.35341 11.79 9.35546 11.79 9.35752 11.79C9.35959 11.79 9.36166 11.79 9.36374 11.79C9.36582 11.79 9.36791 11.79 9.37001 11.79C9.37211 11.79 9.37423 11.79 9.37635 11.79C9.37847 11.79 9.3806 11.79 9.38275 11.79C9.38489 11.79 9.38704 11.79 9.38921 11.79C9.39137 11.79 9.39354 11.79 9.39573 11.79C9.39791 11.79 9.4001 11.79 9.40231 11.79C9.40451 11.79 9.40672 11.79 9.40895 11.79C9.41117 11.79 9.4134 11.79 9.41565 11.79C9.41789 11.79 9.42014 11.79 9.42241 11.79C9.42467 11.79 9.42694 11.79 9.42922 11.79C9.43151 11.79 9.4338 11.79 9.4361 11.79C9.4384 11.79 9.44071 11.79 9.44304 11.79C9.44536 11.79 9.44769 11.79 9.45003 11.79C9.45237 11.79 9.45472 11.79 9.45708 11.79C9.45944 11.79 9.46181 11.79 9.46419 11.79C9.46657 11.79 9.46896 11.79 9.47136 11.79C9.47375 11.79 9.47616 11.79 9.47858 11.79C9.481 11.79 9.48342 11.79 9.48586 11.79C9.48829 11.79 9.49074 11.79 9.49319 11.79C9.49565 11.79 9.49811 11.79 9.50058 11.79C9.50306 11.79 9.50554 11.79 9.50803 11.79C9.51052 11.79 9.51302 11.79 9.51553 11.79C9.51804 11.79 9.52056 11.79 9.52309 11.79C9.52562 11.79 9.52815 11.79 9.5307 11.79C9.53325 11.79 9.5358 11.79 9.53837 11.79C9.54093 11.79 9.5435 11.79 9.54608 11.79C9.54867 11.79 9.55126 11.79 9.55386 11.79C9.55646 11.79 9.55906 11.79 9.56168 11.79C9.5643 11.79 9.56693 11.79 9.56956 11.79C9.5722 11.79 9.57484 11.79 9.57749 11.79C9.58014 11.79 9.5828 11.79 9.58547 11.79C9.58814 11.79 9.59082 11.79 9.59351 11.79C9.5962 11.79 9.59889 11.79 9.6016 11.79C9.6043 11.79 9.60701 11.79 9.60973 11.79C9.61245 11.79 9.61518 11.79 9.61792 11.79C9.62066 11.79 9.62341 11.79 9.62616 11.79C9.62891 11.79 9.63168 11.79 9.63445 11.79C9.63722 11.79 9.64 11.79 9.64279 11.79C9.64558 11.79 9.64837 11.79 9.65118 11.79C9.65398 11.79 9.65679 11.79 9.65961 11.79C9.66243 11.79 9.66526 11.79 9.6681 11.79C9.67094 11.79 9.67378 11.79 9.67663 11.79C9.67949 11.79 9.68235 11.79 9.68522 11.79C9.68809 11.79 9.69096 11.79 9.69385 11.79C9.69673 11.79 9.69963 11.79 9.70253 11.79C9.70543 11.79 9.70834 11.79 9.71125 11.79C9.71417 11.79 9.71709 11.79 9.72002 11.79C9.72296 11.79 9.7259 11.79 9.72884 11.79C9.73179 11.79 9.73475 11.79 9.73771 11.79C9.74067 11.79 9.74364 11.79 9.74662 11.79C9.7496 11.79 9.75258 11.79 9.75558 11.79C9.75857 11.79 9.76157 11.79 9.76458 11.79C9.76759 11.79 9.7706 11.79 9.77362 11.79C9.77665 11.79 9.77968 11.79 9.78271 11.79C9.78575 11.79 9.7888 11.79 9.79185 11.79C9.7949 11.79 9.79796 11.79 9.80103 11.79C9.8041 11.79 9.80717 11.79 9.81025 11.79C9.81333 11.79 9.81642 11.79 9.81952 11.79C9.82261 11.79 9.82572 11.79 9.82883 11.79C9.83194 11.79 9.83505 11.79 9.83818 11.79C9.8413 11.79 9.84443 11.79 9.84757 11.79C9.85071 11.79 9.85386 11.79 9.85701 11.79C9.86016 11.79 9.86332 11.79 9.86649 11.79C9.86965 11.79 9.87282 11.79 9.876 11.79C9.87918 11.79 9.88237 11.79 9.88556 11.79C9.88876 11.79 9.89196 11.79 9.89516 11.79C9.89837 11.79 9.90158 11.79 9.9048 11.79C9.90802 11.79 9.91125 11.79 9.91448 11.79C9.91772 11.79 9.92096 11.79 9.9242 11.79C9.92745 11.79 9.9307 11.79 9.93396 11.79C9.93722 11.79 9.94049 11.79 9.94376 11.79C9.94703 11.79 9.95031 11.79 9.9536 11.79C9.95688 11.79 9.96017 11.79 9.96347 11.79C9.96677 11.79 9.97007 11.79 9.97338 11.79C9.97669 11.79 9.98001 11.79 9.98333 11.79C9.98666 11.79 9.98999 11.79 9.99332 11.79C9.99666 11.79 10 11.79 10.0033 11.79C10.0067 11.79 10.01 11.79 10.0134 11.79C10.0168 11.79 10.0201 11.79 10.0235 11.79C10.0269 11.79 10.0303 11.79 10.0336 11.79C10.037 11.79 10.0404 11.79 10.0438 11.79C10.0472 11.79 10.0506 11.79 10.054 11.79C10.0574 11.79 10.0608 11.79 10.0642 11.79C10.0677 11.79 10.0711 11.79 10.0745 11.79C10.078 11.79 10.0814 11.79 10.0848 11.79C10.0883 11.79 10.0917 11.79 10.0952 11.79C10.0986 11.79 10.1021 11.79 10.1055 11.79C10.109 11.79 10.1125 11.79 10.116 11.79C10.1194 11.79 10.1229 11.79 10.1264 11.79C10.1299 11.79 10.1334 11.79 10.1369 11.79C10.1404 11.79 10.1439 11.79 10.1474 11.79C10.1509 11.79 10.1544 11.79 10.1579 11.79C10.1614 11.79 10.165 11.79 10.1685 11.79C10.172 11.79 10.1756 11.79 10.1791 11.79C10.1826 11.79 10.1862 11.79 10.1897 11.79C10.1933 11.79 10.1968 11.79 10.2004 11.79C10.2039 11.79 10.2075 11.79 10.2111 11.79C10.2147 11.79 10.2182 11.79 10.2218 11.79C10.2254 11.79 10.229 11.79 10.2326 11.79C10.2361 11.79 10.2397 11.79 10.2433 11.79C10.2469 11.79 10.2505 11.79 10.2542 11.79C10.2578 11.79 10.2614 11.79 10.265 11.79C10.2686 11.79 10.2722 11.79 10.2759 11.79C10.2795 11.79 10.2831 11.79 10.2868 11.79C10.2904 11.79 10.294 11.79 10.2977 11.79C10.3013 11.79 10.305 11.79 10.3086 11.79C10.3123 11.79 10.316 11.79 10.3196 11.79C10.3233 11.79 10.3269 11.79 10.3306 11.79C10.3343 11.79 10.338 11.79 10.3417 11.79C10.3453 11.79 10.349 11.79 10.3527 11.79C10.3564 11.79 10.3601 11.79 10.3638 11.79C10.3675 11.79 10.3712 11.79 10.3749 11.79C10.3786 11.79 10.3823 11.79 10.386 11.79C10.3898 11.79 10.3935 11.79 10.3972 11.79C10.4009 11.79 10.4046 11.79 10.4084 11.79C10.4121 11.79 10.4158 11.79 10.4196 11.79C10.4233 11.79 10.4271 11.79 10.4308 11.79C10.4346 11.79 10.4383 11.79 10.4421 11.79C10.4458 11.79 10.4496 11.79 10.4534 11.79C10.4571 11.79 10.4609 11.79 10.4647 11.79C10.4684 11.79 10.4722 11.79 10.476 11.79C10.4798 11.79 10.4835 11.79 10.4873 11.79C10.4911 11.79 10.4949 11.79 10.4987 11.79C10.5025 11.79 10.5063 11.79 10.5101 11.79C10.5139 11.79 10.5177 11.79 10.5215 11.79C10.5253 11.79 10.5291 11.79 10.5329 11.79C10.5367 11.79 10.5405 11.79 10.5444 11.79C10.5482 11.79 10.552 11.79 10.5558 11.79C10.5597 11.79 10.5635 11.79 10.5673 11.79C10.5712 11.79 10.575 11.79 10.5788 11.79C10.5827 11.79 10.5865 11.79 10.5904 11.79C10.5942 11.79 10.5981 11.79 10.6019 11.79C10.6058 11.79 10.6096 11.79 10.6135 11.79C10.6173 11.79 10.6212 11.79 10.6251 11.79C10.6289 11.79 10.6328 11.79 10.6367 11.79C10.6405 11.79 10.6444 11.79 10.6483 11.79C10.6522 11.79 10.656 11.79 10.6599 11.79C10.6638 11.79 10.6677 11.79 10.6716 11.79C10.6755 11.79 10.6793 11.79 10.6832 11.79C10.6871 11.79 10.691 11.79 10.6949 11.79C10.6988 11.79 10.7027 11.79 10.7066 11.79C10.7105 11.79 10.7144 11.79 10.7183 11.79C10.7222 11.79 10.7262 11.79 10.7301 11.79C10.734 11.79 10.7379 11.79 10.7418 11.79C10.7457 11.79 10.7497 11.79 10.7536 11.79C10.7575 11.79 10.7614 11.79 10.7654 11.79C10.7693 11.79 10.7732 11.79 10.7771 11.79C10.7811 11.79 10.785 11.79 10.7889 11.79C10.7929 11.79 10.7968 11.79 10.8008 11.79C10.8047 11.79 10.8086 11.79 10.8126 11.79C10.8165 11.79 10.8205 11.79 10.8244 11.79C10.8284 11.79 10.8323 11.79 10.8363 11.79C10.8402 11.79 10.8442 11.79 10.8481 11.79C10.8521 11.79 10.8561 11.79 10.86 11.79C10.864 11.79 10.8679 11.79 10.8719 11.79C10.8759 11.79 10.8798 11.79 10.8838 11.79C10.8878 11.79 10.8917 11.79 10.8957 11.79C10.8997 11.79 10.9037 11.79 10.9076 11.79C10.9116 11.79 10.9156 11.79 10.9196 11.79C10.9235 11.79 10.9275 11.79 10.9315 11.79C10.9355 11.79 10.9395 11.79 10.9435 11.79C10.9474 11.79 10.9514 11.79 10.9554 11.79C10.9594 11.79 10.9634 11.79 10.9674 11.79C10.9714 11.79 10.9754 11.79 10.9793 11.79C10.9833 11.79 10.9873 11.79 10.9913 11.79C10.9953 11.79 10.9993 11.79 11.0033 11.79C11.0073 11.79 11.0113 11.79 11.0153 11.79C11.0193 11.79 11.0233 11.79 11.0273 11.79C11.0313 11.79 11.0353 11.79 11.0393 11.79C11.0433 11.79 11.0473 11.79 11.0513 11.79C11.0553 11.79 11.0594 11.79 11.0634 11.79C11.0674 11.79 11.0714 11.79 11.0754 11.79C11.0794 11.79 11.0834 11.79 11.0874 11.79C11.0914 11.79 11.0954 11.79 11.0995 11.79C11.1035 11.79 11.1075 11.79 11.1115 11.79C11.1155 11.79 11.1195 11.79 11.1235 11.79C11.1276 11.79 11.1316 11.79 11.1356 11.79C11.1396 11.79 11.1436 11.79 11.1476 11.79C11.1517 11.79 11.1557 11.79 11.1597 11.79C11.1637 11.79 11.1677 11.79 11.1718 11.79C11.1758 11.79 11.1798 11.79 11.1838 11.79C11.1878 11.79 11.1919 11.79 11.1959 11.79C11.1999 11.79 11.2039 11.79 11.2079 11.79C11.212 11.79 11.216 11.79 11.22 11.79C11.224 11.79 11.2281 11.79 11.2321 11.79C11.2361 11.79 11.2401 11.79 11.2442 11.79C11.2482 11.79 11.2522 11.79 11.2562 11.79C11.2602 11.79 11.2643 11.79 11.2683 11.79C11.2723 11.79 11.2763 11.79 11.2804 11.79C11.2844 11.79 11.2884 11.79 11.2924 11.79C11.2965 11.79 11.3005 11.79 11.3045 11.79C11.3085 11.79 11.3125 11.79 11.3166 11.79C11.3206 11.79 11.3246 11.79 11.3286 11.79C11.3327 11.79 11.3367 11.79 11.3407 11.79C11.3447 11.79 11.3487 11.79 11.3528 11.79C11.3568 11.79 11.3608 11.79 11.3648 11.79C11.3688 11.79 11.3729 11.79 11.3769 11.79C11.3809 11.79 11.3849 11.79 11.3889 11.79C11.393 11.79 11.397 11.79 11.401 11.79C11.405 11.79 11.409 11.79 11.413 11.79C11.4171 11.79 11.4211 11.79 11.4251 11.79C11.4291 11.79 11.4331 11.79 11.4371 11.79C11.4411 11.79 11.4451 11.79 11.4492 11.79C11.4532 11.79 11.4572 11.79 11.4612 11.79C11.4652 11.79 11.4692 11.79 11.4732 11.79C11.4772 11.79 11.4812 11.79 11.4852 11.79C11.4892 11.79 11.4932 11.79 11.4972 11.79C11.5012 11.79 11.5052 11.79 11.5092 11.79C11.5132 11.79 11.5172 11.79 11.5212 11.79C11.5252 11.79 11.5292 11.79 11.5332 11.79C11.5372 11.79 11.5412 11.79 11.5452 11.79C11.5492 11.79 11.5532 11.79 11.5572 11.79C11.5612 11.79 11.5652 11.79 11.5692 11.79C11.5732 11.79 11.5771 11.79 11.5811 11.79C11.5851 11.79 11.5891 11.79 11.5931 11.79C11.5971 11.79 11.601 11.79 11.605 11.79C11.609 11.79 11.613 11.79 11.617 11.79C11.6209 11.79 11.6249 11.79 11.6289 11.79C11.6329 11.79 11.6368 11.79 11.6408 11.79C11.6448 11.79 11.6487 11.79 11.6527 11.79C11.6567 11.79 11.6606 11.79 11.6646 11.79C11.6686 11.79 11.6725 11.79 11.6765 11.79C11.6804 11.79 11.6844 11.79 11.6883 11.79C11.6923 11.79 11.6963 11.79 11.7002 11.79C11.7042 11.79 11.7081 11.79 11.7121 11.79C11.716 11.79 11.7199 11.79 11.7239 11.79C11.7278 11.79 11.7318 11.79 11.7357 11.79C11.7396 11.79 11.7436 11.79 11.7475 11.79C11.7515 11.79 11.7554 11.79 11.7593 11.79C11.7632 11.79 11.7672 11.79 11.7711 11.79C11.775 11.79 11.7789 11.79 11.7829 11.79C11.7868 11.79 11.7907 11.79 11.7946 11.79C11.7985 11.79 11.8024 11.79 11.8064 11.79C11.8103 11.79 11.8142 11.79 11.8181 11.79C11.822 11.79 11.8259 11.79 11.8298 11.79C11.8337 11.79 11.8376 11.79 11.8415 11.79C11.8454 11.79 11.8493 11.79 11.8532 11.79C11.8571 11.79 11.8609 11.79 11.8648 11.79C11.8687 11.79 11.8726 11.79 11.8765 11.79C11.8803 11.79 11.8842 11.79 11.8881 11.79C11.892 11.79 11.8958 11.79 11.8997 11.79C11.9036 11.79 11.9074 11.79 11.9113 11.79C11.9152 11.79 11.919 11.79 11.9229 11.79C11.9267 11.79 11.9306 11.79 11.9344 11.79C11.9383 11.79 11.9421 11.79 11.946 11.79C11.9498 11.79 11.9537 11.79 11.9575 11.79C11.9613 11.79 11.9652 11.79 11.969 11.79C11.9728 11.79 11.9766 11.79 11.9805 11.79C11.9843 11.79 11.9881 11.79 11.9919 11.79C11.9957 11.79 11.9996 11.79 12.0034 11.79C12.0072 11.79 12.011 11.79 12.0148 11.79C12.0186 11.79 12.0224 11.79 12.0262 11.79C12.03 11.79 12.0338 11.79 12.0376 11.79C12.0414 11.79 12.0451 11.79 12.0489 11.79C12.0527 11.79 12.0565 11.79 12.0603 11.79C12.064 11.79 12.0678 11.79 12.0716 11.79C12.0753 11.79 12.0791 11.79 12.0829 11.79C12.0866 11.79 12.0904 11.79 12.0941 11.79C12.0979 11.79 12.1016 11.79 12.1054 11.79C12.1091 11.79 12.1129 11.79 12.1166 11.79C12.1203 11.79 12.1241 11.79 12.1278 11.79C12.1315 11.79 12.1352 11.79 12.139 11.79C12.1427 11.79 12.1464 11.79 12.1501 11.79C12.1538 11.79 12.1575 11.79 12.1612 11.79C12.1649 11.79 12.1686 11.79 12.1723 11.79C12.176 11.79 12.1797 11.79 12.1834 11.79C12.1871 11.79 12.1908 11.79 12.1944 11.79C12.1981 11.79 12.2018 11.79 12.2055 11.79C12.2091 11.79 12.2128 11.79 12.2164 11.79C12.2201 11.79 12.2238 11.79 12.2274 11.79C12.2311 11.79 12.2347 11.79 12.2384 11.79C12.242 11.79 12.2456 11.79 12.2493 11.79C12.2529 11.79 12.2565 11.79 12.2601 11.79C12.2638 11.79 12.2674 11.79 12.271 11.79C12.2746 11.79 12.2782 11.79 12.2818 11.79C12.2854 11.79 12.289 11.79 12.2926 11.79C12.2962 11.79 12.2998 11.79 12.3034 11.79C12.307 11.79 12.3106 11.79 12.3141 11.79C12.3177 11.79 12.3213 11.79 12.3248 11.79C12.3284 11.79 12.332 11.79 12.3355 11.79C12.3391 11.79 12.3426 11.79 12.3462 11.79C12.3497 11.79 12.3533 11.79 12.3568 11.79C12.3603 11.79 12.3639 11.79 12.3674 11.79C12.3709 11.79 12.3744 11.79 12.3779 11.79C12.3814 11.79 12.385 11.79 12.3885 11.79C12.392 11.79 12.3955 11.79 12.3989 11.79C12.4024 11.79 12.4059 11.79 12.4094 11.79C12.4129 11.79 12.4164 11.79 12.4198 11.79C12.4233 11.79 12.4268 11.79 12.4302 11.79C12.4337 11.79 12.4371 11.79 12.4406 11.79C12.444 11.79 12.4475 11.79 12.4509 11.79C12.4543 11.79 12.4578 11.79 12.4612 11.79C12.4646 11.79 12.468 11.79 12.4715 11.79C12.4749 11.79 12.4783 11.79 12.4817 11.79C12.4851 11.79 12.4885 11.79 12.4919 11.79C12.4953 11.79 12.4986 11.79 12.502 11.79C12.5054 11.79 12.5088 11.79 12.5121 11.79C12.5155 11.79 12.5189 11.79 12.5222 11.79C12.5256 11.79 12.5289 11.79 12.5323 11.79C12.5356 11.79 12.5389 11.79 12.5423 11.79C12.5456 11.79 12.5489 11.79 12.5522 11.79C12.5556 11.79 12.5589 11.79 12.5622 11.79C12.5655 11.79 12.5688 11.79 12.5721 11.79C12.5754 11.79 12.5786 11.79 12.5819 11.79C12.5852 11.79 12.5885 11.79 12.5917 11.79C12.595 11.79 12.5983 11.79 12.6015 11.79C12.6048 11.79 12.608 11.79 12.6113 11.79C12.6145 11.79 12.6177 11.79 12.621 11.79C12.6242 11.79 12.6274 11.79 12.6306 11.79C12.6338 11.79 12.637 11.79 12.6402 11.79C12.6434 11.79 12.6466 11.79 12.6498 11.79C12.653 11.79 12.6562 11.79 12.6594 11.79C12.6625 11.79 12.6657 11.79 12.6689 11.79C12.672 11.79 12.6752 11.79 12.6783 11.79C12.6815 11.79 12.6846 11.79 12.6877 11.79C12.6909 11.79 12.694 11.79 12.6971 11.79C12.7002 11.79 12.7033 11.79 12.7064 11.79C12.7095 11.79 12.7126 11.79 12.7157 11.79C12.7188 11.79 12.7219 11.79 12.725 11.79C12.728 11.79 12.7311 11.79 12.7342 11.79C12.7372 11.79 12.7403 11.79 12.7433 11.79C12.7464 11.79 12.7494 11.79 12.7524 11.79C12.7555 11.79 12.7585 11.79 12.7615 11.79C12.7645 11.79 12.7675 11.79 12.7705 11.79C12.7735 11.79 12.7765 11.79 12.7795 11.79C12.7825 11.79 12.7855 11.79 12.7885 11.79C12.7914 11.79 12.7944 11.79 12.7973 11.79C12.8003 11.79 12.8032 11.79 12.8062 11.79C12.8091 11.79 12.8121 11.79 12.815 11.79C12.8179 11.79 12.8208 11.79 12.8237 11.79C12.8266 11.79 12.8295 11.79 12.8324 11.79C12.8353 11.79 12.8382 11.79 12.8411 11.79C12.844 11.79 12.8468 11.79 12.8497 11.79C12.8526 11.79 12.8554 11.79 12.8583 11.79C12.8611 11.79 12.8639 11.79 12.8668 11.79C12.8696 11.79 12.8724 11.79 12.8752 11.79C12.878 11.79 12.8808 11.79 12.8836 11.79C12.8864 11.79 12.8892 11.79 12.892 11.79C12.8948 11.79 12.8976 11.79 12.9003 11.79C12.9031 11.79 12.9058 11.79 12.9086 11.79C12.9113 11.79 12.9141 11.79 12.9168 11.79C12.9195 11.79 12.9223 11.79 12.925 11.79C12.9277 11.79 12.9304 11.79 12.9331 11.79C12.9358 11.79 12.9385 11.79 12.9411 11.79C12.9438 11.79 12.9465 11.79 12.9491 11.79C12.9518 11.79 12.9545 11.79 12.9571 11.79C12.9597 11.79 12.9624 11.79 12.965 11.79C12.9676 11.79 12.9703 11.79 12.9729 11.79C12.9755 11.79 12.9781 11.79 12.9807 11.79C12.9833 11.79 12.9858 11.79 12.9884 11.79C12.991 11.79 12.9935 11.79 12.9961 11.79C12.9987 11.79 13.0012 11.79 13.0037 11.79C13.0063 11.79 13.0088 11.79 13.0113 11.79C13.0138 11.79 13.0164 11.79 13.0189 11.79C13.0214 11.79 13.0238 11.79 13.0263 11.79C13.0288 11.79 13.0313 11.79 13.0338 11.79C13.0362 11.79 13.0387 11.79 13.0411 11.79C13.0436 11.79 13.046 11.79 13.0484 11.79C13.0509 11.79 13.0533 11.79 13.0557 11.79C13.0581 11.79 13.0605 11.79 13.0629 11.79C13.0653 11.79 13.0676 11.79 13.07 11.79C13.0724 11.79 13.0747 11.79 13.0771 11.79C13.0794 11.79 13.0818 11.79 13.0841 11.79C13.0864 11.79 13.0888 11.79 13.0911 11.79C13.0934 11.79 13.0957 11.79 13.098 11.79C13.1003 11.79 13.1026 11.79 13.1048 11.79C13.1071 11.79 13.1094 11.79 13.1116 11.79C13.1139 11.79 13.1161 11.79 13.1184 11.79C13.1206 11.79 13.1228 11.79 13.125 11.79C13.1272 11.79 13.1294 11.79 13.1316 11.79C13.1338 11.79 13.136 11.79 13.1382 11.79C13.1404 11.79 13.1425 11.79 13.1447 11.79C13.1468 11.79 13.149 11.79 13.1511 11.79C13.1532 11.79 13.1554 11.79 13.1575 11.79C13.1596 11.79 13.1617 11.79 13.1638 11.79C13.1659 11.79 13.168 11.79 13.17 11.79C13.1721 11.79 13.1742 11.79 13.1762 11.79C13.1783 11.79 13.1803 11.79 13.1823 11.79C13.1844 11.79 13.1864 11.79 13.1884 11.79C13.1904 11.79 13.1924 11.79 13.1944 11.79C13.1964 11.79 13.1983 11.79 13.2003 11.79C13.2023 11.79 13.2042 11.79 13.2062 11.79C13.2081 11.79 13.2101 11.79 13.212 11.79C13.2139 11.79 13.2158 11.79 13.2177 11.79C13.2196 11.79 13.2215 11.79 13.2234 11.79C13.2253 11.79 13.2271 11.79 13.229 11.79C13.2309 11.79 13.2327 11.79 13.2345 11.79C13.2364 11.79 13.2382 11.79 13.24 11.79C13.2418 11.79 13.2436 11.79 13.2454 11.79C13.2472 11.79 13.249 11.79 13.2508 11.79C13.2525 11.79 13.2543 11.79 13.2561 11.79C13.2578 11.79 13.2595 11.79 13.2613 11.79C13.263 11.79 13.2647 11.79 13.2664 11.79C13.2681 11.79 13.2698 11.79 13.2715 11.79C13.2732 11.79 13.2748 11.79 13.2765 11.79C13.2781 11.79 13.2798 11.79 13.2814 11.79C13.2831 11.79 13.2847 11.79 13.2863 11.79C13.2879 11.79 13.2895 11.79 13.2911 11.79C13.2927 11.79 13.2943 11.79 13.2958 11.79C13.2974 11.79 13.2989 11.79 13.3005 11.79C13.302 11.79 13.3035 11.79 13.3051 11.79C13.3066 11.79 13.3081 11.79 13.3096 11.79C13.3111 11.79 13.3126 11.79 13.314 11.79C13.3155 11.79 13.317 11.79 13.3184 11.79C13.3199 11.79 13.3213 11.79 13.3227 11.79C13.3241 11.79 13.3256 11.79 13.327 11.79C13.3284 11.79 13.3297 11.79 13.3311 11.79C13.3325 11.79 13.3339 11.79 13.3352 11.79C13.3366 11.79 13.3379 11.79 13.3392 11.79C13.3405 11.79 13.3419 11.79 13.3432 11.79C13.3445 11.79 13.3458 11.79 13.347 11.79C13.3483 11.79 13.3496 11.79 13.3508 11.79C13.3521 11.79 13.3533 11.79 13.3546 11.79C13.3558 11.79 13.357 11.79 13.3582 11.79C13.3594 11.79 13.3606 11.79 13.3618 11.79C13.363 11.79 13.3641 11.79 13.3653 11.79C13.3664 11.79 13.3676 11.79 13.3687 11.79C13.3698 11.79 13.3709 11.79 13.372 11.79C13.3731 11.79 13.3742 11.79 13.3753 11.79C13.3764 11.79 13.3775 11.79 13.3785 11.79C13.3796 11.79 13.3806 11.79 13.3816 11.79C13.3827 11.79 13.3837 11.79 13.3847 11.79C13.3857 11.79 13.3867 11.79 13.3876 11.79C13.3886 11.79 13.3896 11.79 13.3905 11.79C13.3915 11.79 13.3924 11.79 13.3933 11.79C13.3942 11.79 13.3952 11.79 13.396 11.79C13.3969 11.79 13.3978 11.79 13.3987 11.79C13.3996 11.79 13.4004 11.79 13.4013 11.79C13.4021 11.79 13.4029 11.79 13.4038 11.79C13.4046 11.79 13.4054 11.79 13.4062 11.79C13.407 11.79 13.4077 11.79 13.4085 11.79C13.4093 11.79 13.41 11.79 13.4108 11.79C13.4115 11.79 13.4122 11.79 13.4129 11.79C13.4136 11.79 13.4143 11.79 13.415 11.79C13.4157 11.79 13.4164 11.79 13.417 11.79C13.4177 11.79 13.4183 11.79 13.419 11.79C13.4196 11.79 13.4202 11.79 13.4208 11.79C13.4214 11.79 13.422 11.79 13.4226 11.79C13.4231 11.79 13.4237 11.79 13.4242 11.79C13.4248 11.79 13.4253 11.79 13.4258 11.79C13.4263 11.79 13.4269 11.79 13.4273 11.79C13.4278 11.79 13.4283 11.79 13.4288 11.79C13.4292 11.79 13.4297 11.79 13.4301 11.79C13.4306 11.79 13.431 11.79 13.4314 11.79C13.4318 11.79 13.4322 11.79 13.4326 11.79C13.4329 11.79 13.4333 11.79 13.4336 11.79C13.434 11.79 13.4343 11.79 13.4346 11.79C13.435 11.79 13.4353 11.79 13.4356 11.79C13.4359 11.79 13.4361 11.79 13.4364 11.79C13.4367 11.79 13.4369 11.79 13.4372 11.79C13.4374 11.79 13.4376 11.79 13.4378 11.79C13.438 11.79 13.4382 11.79 13.4384 11.79C13.4386 11.79 13.4387 11.79 13.4389 11.79C13.439 11.79 13.4392 11.79 13.4393 11.79C13.4394 11.79 13.4395 11.79 13.4396 11.79C13.4397 11.79 13.4397 11.79 13.4398 11.79C13.4399 11.79 13.4399 11.79 13.4399 11.79C13.44 11.79 13.44 11.79 13.44 11.04ZM9.12574 11.04V10.29C8.84589 10.29 8.42642 10.3401 8.05745 10.5993C7.64232 10.891 7.40998 11.3623 7.40998 11.9501H8.15998H8.90998C8.90998 11.8547 8.92725 11.8191 8.92802 11.8175C8.92873 11.8161 8.92778 11.8183 8.92467 11.8219C8.92172 11.8253 8.91949 11.8269 8.91975 11.8267C8.92138 11.8256 8.93743 11.8152 8.97758 11.8055C9.01774 11.7957 9.0686 11.79 9.12574 11.79V11.04ZM8.15998 11.9501H7.40998C7.40998 11.9516 7.40998 11.9531 7.40998 11.9545C7.40998 11.956 7.40998 11.9575 7.40998 11.959C7.40998 11.9605 7.40998 11.962 7.40998 11.9635C7.40998 11.965 7.40998 11.9665 7.40998 11.968C7.40998 11.9695 7.40998 11.971 7.40998 11.9726C7.40998 11.9741 7.40998 11.9756 7.40998 11.9771C7.40998 11.9787 7.40998 11.9802 7.40998 11.9818C7.40998 11.9833 7.40998 11.9849 7.40998 11.9864C7.40998 11.988 7.40998 11.9895 7.40998 11.9911C7.40998 11.9927 7.40998 11.9942 7.40998 11.9958C7.40998 11.9974 7.40998 11.999 7.40998 12.0005C7.40998 12.0021 7.40998 12.0037 7.40998 12.0053C7.40998 12.0069 7.40998 12.0085 7.40998 12.0101C7.40998 12.0117 7.40998 12.0133 7.40998 12.0149C7.40998 12.0166 7.40998 12.0182 7.40998 12.0198C7.40998 12.0214 7.40998 12.0231 7.40998 12.0247C7.40998 12.0263 7.40998 12.028 7.40998 12.0296C7.40998 12.0313 7.40998 12.0329 7.40998 12.0346C7.40998 12.0362 7.40998 12.0379 7.40998 12.0396C7.40998 12.0412 7.40998 12.0429 7.40998 12.0446C7.40998 12.0462 7.40998 12.0479 7.40998 12.0496C7.40998 12.0513 7.40998 12.053 7.40998 12.0547C7.40998 12.0564 7.40998 12.0581 7.40998 12.0598C7.40998 12.0615 7.40998 12.0632 7.40998 12.0649C7.40998 12.0666 7.40998 12.0684 7.40998 12.0701C7.40998 12.0718 7.40998 12.0735 7.40998 12.0753C7.40998 12.077 7.40998 12.0787 7.40998 12.0805C7.40998 12.0822 7.40998 12.084 7.40998 12.0857C7.40998 12.0875 7.40998 12.0892 7.40998 12.091C7.40998 12.0928 7.40998 12.0945 7.40998 12.0963C7.40998 12.0981 7.40998 12.0998 7.40998 12.1016C7.40998 12.1034 7.40998 12.1052 7.40998 12.107C7.40998 12.1088 7.40998 12.1106 7.40998 12.1124C7.40998 12.1142 7.40998 12.116 7.40998 12.1178C7.40998 12.1196 7.40998 12.1214 7.40998 12.1232C7.40998 12.125 7.40998 12.1268 7.40998 12.1287C7.40998 12.1305 7.40998 12.1323 7.40998 12.1342C7.40998 12.136 7.40998 12.1378 7.40998 12.1397C7.40998 12.1415 7.40998 12.1434 7.40998 12.1452C7.40998 12.1471 7.40998 12.1489 7.40998 12.1508C7.40998 12.1527 7.40998 12.1545 7.40998 12.1564C7.40998 12.1583 7.40998 12.1601 7.40998 12.162C7.40998 12.1639 7.40998 12.1658 7.40998 12.1677C7.40998 12.1695 7.40998 12.1714 7.40998 12.1733C7.40998 12.1752 7.40998 12.1771 7.40998 12.179C7.40998 12.1809 7.40998 12.1828 7.40998 12.1848C7.40998 12.1867 7.40998 12.1886 7.40998 12.1905C7.40998 12.1924 7.40998 12.1944 7.40998 12.1963C7.40998 12.1982 7.40998 12.2001 7.40998 12.2021C7.40998 12.204 7.40998 12.206 7.40998 12.2079C7.40998 12.2099 7.40998 12.2118 7.40998 12.2138C7.40998 12.2157 7.40998 12.2177 7.40998 12.2196C7.40998 12.2216 7.40998 12.2236 7.40998 12.2255C7.40998 12.2275 7.40998 12.2295 7.40998 12.2315C7.40998 12.2334 7.40998 12.2354 7.40998 12.2374C7.40998 12.2394 7.40998 12.2414 7.40998 12.2434C7.40998 12.2454 7.40998 12.2474 7.40998 12.2494C7.40998 12.2514 7.40998 12.2534 7.40998 12.2554C7.40998 12.2574 7.40998 12.2594 7.40998 12.2614C7.40998 12.2634 7.40998 12.2655 7.40998 12.2675C7.40998 12.2695 7.40998 12.2715 7.40998 12.2736C7.40998 12.2756 7.40998 12.2776 7.40998 12.2797C7.40998 12.2817 7.40998 12.2838 7.40998 12.2858C7.40998 12.2879 7.40998 12.2899 7.40998 12.292C7.40998 12.294 7.40998 12.2961 7.40998 12.2981C7.40998 12.3002 7.40998 12.3023 7.40998 12.3043C7.40998 12.3064 7.40998 12.3085 7.40998 12.3106C7.40998 12.3126 7.40998 12.3147 7.40998 12.3168C7.40998 12.3189 7.40998 12.321 7.40998 12.3231C7.40998 12.3252 7.40998 12.3273 7.40998 12.3294C7.40998 12.3315 7.40998 12.3336 7.40998 12.3357C7.40998 12.3378 7.40998 12.3399 7.40998 12.342C7.40998 12.3441 7.40998 12.3462 7.40998 12.3483C7.40998 12.3505 7.40998 12.3526 7.40998 12.3547C7.40998 12.3568 7.40998 12.359 7.40998 12.3611C7.40998 12.3632 7.40998 12.3654 7.40998 12.3675C7.40998 12.3697 7.40998 12.3718 7.40998 12.3739C7.40998 12.3761 7.40998 12.3782 7.40998 12.3804C7.40998 12.3826 7.40998 12.3847 7.40998 12.3869C7.40998 12.389 7.40998 12.3912 7.40998 12.3934C7.40998 12.3955 7.40998 12.3977 7.40998 12.3999C7.40998 12.402 7.40998 12.4042 7.40998 12.4064C7.40998 12.4086 7.40998 12.4108 7.40998 12.413C7.40998 12.4151 7.40998 12.4173 7.40998 12.4195C7.40998 12.4217 7.40998 12.4239 7.40998 12.4261C7.40998 12.4283 7.40998 12.4305 7.40998 12.4327C7.40998 12.4349 7.40998 12.4371 7.40998 12.4394C7.40998 12.4416 7.40998 12.4438 7.40998 12.446C7.40998 12.4482 7.40998 12.4504 7.40998 12.4527C7.40998 12.4549 7.40998 12.4571 7.40998 12.4593C7.40998 12.4616 7.40998 12.4638 7.40998 12.466C7.40998 12.4683 7.40998 12.4705 7.40998 12.4728C7.40998 12.475 7.40998 12.4773 7.40998 12.4795C7.40998 12.4817 7.40998 12.484 7.40998 12.4863C7.40998 12.4885 7.40998 12.4908 7.40998 12.493C7.40998 12.4953 7.40998 12.4975 7.40998 12.4998C7.40998 12.5021 7.40998 12.5043 7.40998 12.5066C7.40998 12.5089 7.40998 12.5112 7.40998 12.5134C7.40998 12.5157 7.40998 12.518 7.40998 12.5203C7.40998 12.5226 7.40998 12.5248 7.40998 12.5271C7.40998 12.5294 7.40998 12.5317 7.40998 12.534C7.40998 12.5363 7.40998 12.5386 7.40998 12.5409C7.40998 12.5432 7.40998 12.5455 7.40998 12.5478C7.40998 12.5501 7.40998 12.5524 7.40998 12.5547C7.40998 12.557 7.40998 12.5593 7.40998 12.5617C7.40998 12.564 7.40998 12.5663 7.40998 12.5686C7.40998 12.5709 7.40998 12.5733 7.40998 12.5756C7.40998 12.5779 7.40998 12.5802 7.40998 12.5826C7.40998 12.5849 7.40998 12.5872 7.40998 12.5896C7.40998 12.5919 7.40998 12.5942 7.40998 12.5966C7.40998 12.5989 7.40998 12.6013 7.40998 12.6036C7.40998 12.606 7.40998 12.6083 7.40998 12.6107C7.40998 12.613 7.40998 12.6154 7.40998 12.6177C7.40998 12.6201 7.40998 12.6224 7.40998 12.6248C7.40998 12.6271 7.40998 12.6295 7.40998 12.6319C7.40998 12.6342 7.40998 12.6366 7.40998 12.639C7.40998 12.6413 7.40998 12.6437 7.40998 12.6461C7.40998 12.6485 7.40998 12.6508 7.40998 12.6532C7.40998 12.6556 7.40998 12.658 7.40998 12.6604C7.40998 12.6627 7.40998 12.6651 7.40998 12.6675C7.40998 12.6699 7.40998 12.6723 7.40998 12.6747C7.40998 12.6771 7.40998 12.6795 7.40998 12.6819C7.40998 12.6843 7.40998 12.6867 7.40998 12.6891C7.40998 12.6915 7.40998 12.6939 7.40998 12.6963C7.40998 12.6987 7.40998 12.7011 7.40998 12.7035C7.40998 12.7059 7.40998 12.7083 7.40998 12.7107C7.40998 12.7131 7.40998 12.7156 7.40998 12.718C7.40998 12.7204 7.40998 12.7228 7.40998 12.7252C7.40998 12.7277 7.40998 12.7301 7.40998 12.7325C7.40998 12.7349 7.40998 12.7374 7.40998 12.7398C7.40998 12.7422 7.40998 12.7446 7.40998 12.7471C7.40998 12.7495 7.40998 12.752 7.40998 12.7544C7.40998 12.7568 7.40998 12.7593 7.40998 12.7617C7.40998 12.7641 7.40998 12.7666 7.40998 12.769C7.40998 12.7715 7.40998 12.7739 7.40998 12.7764C7.40998 12.7788 7.40998 12.7813 7.40998 12.7837C7.40998 12.7862 7.40998 12.7886 7.40998 12.7911C7.40998 12.7935 7.40998 12.796 7.40998 12.7985C7.40998 12.8009 7.40998 12.8034 7.40998 12.8058C7.40998 12.8083 7.40998 12.8108 7.40998 12.8132C7.40998 12.8157 7.40998 12.8182 7.40998 12.8206C7.40998 12.8231 7.40998 12.8256 7.40998 12.828C7.40998 12.8305 7.40998 12.833 7.40998 12.8355C7.40998 12.8379 7.40998 12.8404 7.40998 12.8429C7.40998 12.8454 7.40998 12.8478 7.40998 12.8503C7.40998 12.8528 7.40998 12.8553 7.40998 12.8578C7.40998 12.8603 7.40998 12.8628 7.40998 12.8652C7.40998 12.8677 7.40998 12.8702 7.40998 12.8727C7.40998 12.8752 7.40998 12.8777 7.40998 12.8802C7.40998 12.8827 7.40998 12.8852 7.40998 12.8877C7.40998 12.8902 7.40998 12.8927 7.40998 12.8952C7.40998 12.8977 7.40998 12.9002 7.40998 12.9027C7.40998 12.9052 7.40998 12.9077 7.40998 12.9102C7.40998 12.9127 7.40998 12.9152 7.40998 12.9177C7.40998 12.9202 7.40998 12.9227 7.40998 12.9252C7.40998 12.9277 7.40998 12.9302 7.40998 12.9328C7.40998 12.9353 7.40998 12.9378 7.40998 12.9403C7.40998 12.9428 7.40998 12.9453 7.40998 12.9478C7.40998 12.9504 7.40998 12.9529 7.40998 12.9554C7.40998 12.9579 7.40998 12.9604 7.40998 12.963C7.40998 12.9655 7.40998 12.968 7.40998 12.9705C7.40998 12.9731 7.40998 12.9756 7.40998 12.9781C7.40998 12.9806 7.40998 12.9832 7.40998 12.9857C7.40998 12.9882 7.40998 12.9907 7.40998 12.9933C7.40998 12.9958 7.40998 12.9983 7.40998 13.0009C7.40998 13.0034 7.40998 13.0059 7.40998 13.0085C7.40998 13.011 7.40998 13.0135 7.40998 13.0161C7.40998 13.0186 7.40998 13.0212 7.40998 13.0237C7.40998 13.0262 7.40998 13.0288 7.40998 13.0313C7.40998 13.0339 7.40998 13.0364 7.40998 13.0389C7.40998 13.0415 7.40998 13.044 7.40998 13.0466C7.40998 13.0491 7.40998 13.0517 7.40998 13.0542C7.40998 13.0567 7.40998 13.0593 7.40998 13.0618C7.40998 13.0644 7.40998 13.0669 7.40998 13.0695C7.40998 13.072 7.40998 13.0746 7.40998 13.0771C7.40998 13.0797 7.40998 13.0822 7.40998 13.0848C7.40998 13.0873 7.40998 13.0899 7.40998 13.0924C7.40998 13.095 7.40998 13.0975 7.40998 13.1001C7.40998 13.1027 7.40998 13.1052 7.40998 13.1078C7.40998 13.1103 7.40998 13.1129 7.40998 13.1154C7.40998 13.118 7.40998 13.1206 7.40998 13.1231C7.40998 13.1257 7.40998 13.1282 7.40998 13.1308C7.40998 13.1333 7.40998 13.1359 7.40998 13.1385C7.40998 13.141 7.40998 13.1436 7.40998 13.1461C7.40998 13.1487 7.40998 13.1513 7.40998 13.1538C7.40998 13.1564 7.40998 13.159 7.40998 13.1615C7.40998 13.1641 7.40998 13.1666 7.40998 13.1692C7.40998 13.1718 7.40998 13.1743 7.40998 13.1769C7.40998 13.1795 7.40998 13.182 7.40998 13.1846C7.40998 13.1872 7.40998 13.1897 7.40998 13.1923C7.40998 13.1949 7.40998 13.1974 7.40998 13.2C7.40998 13.2026 7.40998 13.2051 7.40998 13.2077C7.40998 13.2103 7.40998 13.2128 7.40998 13.2154C7.40998 13.218 7.40998 13.2205 7.40998 13.2231C7.40998 13.2257 7.40998 13.2282 7.40998 13.2308C7.40998 13.2334 7.40998 13.236 7.40998 13.2385C7.40998 13.2411 7.40998 13.2437 7.40998 13.2462C7.40998 13.2488 7.40998 13.2514 7.40998 13.2539C7.40998 13.2565 7.40998 13.2591 7.40998 13.2617C7.40998 13.2642 7.40998 13.2668 7.40998 13.2694C7.40998 13.2719 7.40998 13.2745 7.40998 13.2771C7.40998 13.2796 7.40998 13.2822 7.40998 13.2848C7.40998 13.2874 7.40998 13.2899 7.40998 13.2925C7.40998 13.2951 7.40998 13.2976 7.40998 13.3002C7.40998 13.3028 7.40998 13.3054 7.40998 13.3079C7.40998 13.3105 7.40998 13.3131 7.40998 13.3156C7.40998 13.3182 7.40998 13.3208 7.40998 13.3233C7.40998 13.3259 7.40998 13.3285 7.40998 13.3311C7.40998 13.3336 7.40998 13.3362 7.40998 13.3388C7.40998 13.3413 7.40998 13.3439 7.40998 13.3465C7.40998 13.349 7.40998 13.3516 7.40998 13.3542C7.40998 13.3568 7.40998 13.3593 7.40998 13.3619C7.40998 13.3645 7.40998 13.367 7.40998 13.3696C7.40998 13.3722 7.40998 13.3747 7.40998 13.3773C7.40998 13.3799 7.40998 13.3824 7.40998 13.385C7.40998 13.3876 7.40998 13.3901 7.40998 13.3927C7.40998 13.3953 7.40998 13.3978 7.40998 13.4004C7.40998 13.403 7.40998 13.4055 7.40998 13.4081C7.40998 13.4106 7.40998 13.4132 7.40998 13.4158C7.40998 13.4183 7.40998 13.4209 7.40998 13.4235C7.40998 13.426 7.40998 13.4286 7.40998 13.4311C7.40998 13.4337 7.40998 13.4363 7.40998 13.4388C7.40998 13.4414 7.40998 13.444 7.40998 13.4465C7.40998 13.4491 7.40998 13.4516 7.40998 13.4542C7.40998 13.4567 7.40998 13.4593 7.40998 13.4619C7.40998 13.4644 7.40998 13.467 7.40998 13.4695C7.40998 13.4721 7.40998 13.4746 7.40998 13.4772C7.40998 13.4798 7.40998 13.4823 7.40998 13.4849C7.40998 13.4874 7.40998 13.49 7.40998 13.4925C7.40998 13.4951 7.40998 13.4976 7.40998 13.5002C7.40998 13.5027 7.40998 13.5053 7.40998 13.5078C7.40998 13.5104 7.40998 13.5129 7.40998 13.5155C7.40998 13.518 7.40998 13.5206 7.40998 13.5231C7.40998 13.5256 7.40998 13.5282 7.40998 13.5307C7.40998 13.5333 7.40998 13.5358 7.40998 13.5384C7.40998 13.5409 7.40998 13.5435 7.40998 13.546C7.40998 13.5485 7.40998 13.5511 7.40998 13.5536C7.40998 13.5562 7.40998 13.5587 7.40998 13.5612C7.40998 13.5638 7.40998 13.5663 7.40998 13.5688C7.40998 13.5714 7.40998 13.5739 7.40998 13.5764C7.40998 13.579 7.40998 13.5815 7.40998 13.584C7.40998 13.5866 7.40998 13.5891 7.40998 13.5916C7.40998 13.5942 7.40998 13.5967 7.40998 13.5992C7.40998 13.6017 7.40998 13.6043 7.40998 13.6068C7.40998 13.6093 7.40998 13.6118 7.40998 13.6144C7.40998 13.6169 7.40998 13.6194 7.40998 13.6219C7.40998 13.6244 7.40998 13.627 7.40998 13.6295C7.40998 13.632 7.40998 13.6345 7.40998 13.637C7.40998 13.6395 7.40998 13.6421 7.40998 13.6446C7.40998 13.6471 7.40998 13.6496 7.40998 13.6521C7.40998 13.6546 7.40998 13.6571 7.40998 13.6596C7.40998 13.6621 7.40998 13.6646 7.40998 13.6671C7.40998 13.6696 7.40998 13.6722 7.40998 13.6747C7.40998 13.6772 7.40998 13.6797 7.40998 13.6822C7.40998 13.6847 7.40998 13.6872 7.40998 13.6897C7.40998 13.6921 7.40998 13.6946 7.40998 13.6971C7.40998 13.6996 7.40998 13.7021 7.40998 13.7046C7.40998 13.7071 7.40998 13.7096 7.40998 13.7121C7.40998 13.7146 7.40998 13.7171 7.40998 13.7195C7.40998 13.722 7.40998 13.7245 7.40998 13.727C7.40998 13.7295 7.40998 13.732 7.40998 13.7344C7.40998 13.7369 7.40998 13.7394 7.40998 13.7419C7.40998 13.7443 7.40998 13.7468 7.40998 13.7493C7.40998 13.7518 7.40998 13.7542 7.40998 13.7567C7.40998 13.7592 7.40998 13.7616 7.40998 13.7641C7.40998 13.7666 7.40998 13.769 7.40998 13.7715C7.40998 13.774 7.40998 13.7764 7.40998 13.7789C7.40998 13.7813 7.40998 13.7838 7.40998 13.7863C7.40998 13.7887 7.40998 13.7912 7.40998 13.7936C7.40998 13.7961 7.40998 13.7985 7.40998 13.801C7.40998 13.8034 7.40998 13.8059 7.40998 13.8083C7.40998 13.8108 7.40998 13.8132 7.40998 13.8156C7.40998 13.8181 7.40998 13.8205 7.40998 13.823C7.40998 13.8254 7.40998 13.8278 7.40998 13.8303C7.40998 13.8327 7.40998 13.8351 7.40998 13.8376C7.40998 13.84 7.40998 13.8424 7.40998 13.8448C7.40998 13.8473 7.40998 13.8497 7.40998 13.8521C7.40998 13.8545 7.40998 13.857 7.40998 13.8594C7.40998 13.8618 7.40998 13.8642 7.40998 13.8666C7.40998 13.869 7.40998 13.8714 7.40998 13.8739C7.40998 13.8763 7.40998 13.8787 7.40998 13.8811C7.40998 13.8835 7.40998 13.8859 7.40998 13.8883C7.40998 13.8907 7.40998 13.8931 7.40998 13.8955C7.40998 13.8979 7.40998 13.9003 7.40998 13.9027C7.40998 13.9051 7.40998 13.9075 7.40998 13.9098C7.40998 13.9122 7.40998 13.9146 7.40998 13.917C7.40998 13.9194 7.40998 13.9218 7.40998 13.9241C7.40998 13.9265 7.40998 13.9289 7.40998 13.9313C7.40998 13.9336 7.40998 13.936 7.40998 13.9384C7.40998 13.9408 7.40998 13.9431 7.40998 13.9455C7.40998 13.9479 7.40998 13.9502 7.40998 13.9526C7.40998 13.9549 7.40998 13.9573 7.40998 13.9597C7.40998 13.962 7.40998 13.9644 7.40998 13.9667C7.40998 13.9691 7.40998 13.9714 7.40998 13.9738C7.40998 13.9761 7.40998 13.9785 7.40998 13.9808C7.40998 13.9831 7.40998 13.9855 7.40998 13.9878C7.40998 13.9901 7.40998 13.9925 7.40998 13.9948C7.40998 13.9971 7.40998 13.9995 7.40998 14.0018C7.40998 14.0041 7.40998 14.0064 7.40998 14.0088C7.40998 14.0111 7.40998 14.0134 7.40998 14.0157C7.40998 14.018 7.40998 14.0204 7.40998 14.0227C7.40998 14.025 7.40998 14.0273 7.40998 14.0296C7.40998 14.0319 7.40998 14.0342 7.40998 14.0365C7.40998 14.0388 7.40998 14.0411 7.40998 14.0434C7.40998 14.0457 7.40998 14.048 7.40998 14.0503C7.40998 14.0526 7.40998 14.0548 7.40998 14.0571C7.40998 14.0594 7.40998 14.0617 7.40998 14.064C7.40998 14.0662 7.40998 14.0685 7.40998 14.0708C7.40998 14.0731 7.40998 14.0753 7.40998 14.0776C7.40998 14.0799 7.40998 14.0821 7.40998 14.0844C7.40998 14.0866 7.40998 14.0889 7.40998 14.0912C7.40998 14.0934 7.40998 14.0957 7.40998 14.0979C7.40998 14.1002 7.40998 14.1024 7.40998 14.1047C7.40998 14.1069 7.40998 14.1091 7.40998 14.1114C7.40998 14.1136 7.40998 14.1158 7.40998 14.1181C7.40998 14.1203 7.40998 14.1225 7.40998 14.1248C7.40998 14.127 7.40998 14.1292 7.40998 14.1314C7.40998 14.1336 7.40998 14.1359 7.40998 14.1381C7.40998 14.1403 7.40998 14.1425 7.40998 14.1447C7.40998 14.1469 7.40998 14.1491 7.40998 14.1513C7.40998 14.1535 7.40998 14.1557 7.40998 14.1579C7.40998 14.1601 7.40998 14.1623 7.40998 14.1645C7.40998 14.1667 7.40998 14.1689 7.40998 14.171C7.40998 14.1732 7.40998 14.1754 7.40998 14.1776C7.40998 14.1797 7.40998 14.1819 7.40998 14.1841C7.40998 14.1863 7.40998 14.1884 7.40998 14.1906C7.40998 14.1927 7.40998 14.1949 7.40998 14.1971C7.40998 14.1992 7.40998 14.2014 7.40998 14.2035C7.40998 14.2057 7.40998 14.2078 7.40998 14.2099C7.40998 14.2121 7.40998 14.2142 7.40998 14.2164C7.40998 14.2185 7.40998 14.2206 7.40998 14.2227C7.40998 14.2249 7.40998 14.227 7.40998 14.2291C7.40998 14.2312 7.40998 14.2334 7.40998 14.2355C7.40998 14.2376 7.40998 14.2397 7.40998 14.2418C7.40998 14.2439 7.40998 14.246 7.40998 14.2481C7.40998 14.2502 7.40998 14.2523 7.40998 14.2544C7.40998 14.2565 7.40998 14.2586 7.40998 14.2607C7.40998 14.2628 7.40998 14.2648 7.40998 14.2669C7.40998 14.269 7.40998 14.2711 7.40998 14.2731C7.40998 14.2752 7.40998 14.2773 7.40998 14.2793C7.40998 14.2814 7.40998 14.2835 7.40998 14.2855C7.40998 14.2876 7.40998 14.2896 7.40998 14.2917C7.40998 14.2937 7.40998 14.2958 7.40998 14.2978C7.40998 14.2999 7.40998 14.3019 7.40998 14.3039C7.40998 14.306 7.40998 14.308 7.40998 14.31C7.40998 14.312 7.40998 14.3141 7.40998 14.3161C7.40998 14.3181 7.40998 14.3201 7.40998 14.3221C7.40998 14.3241 7.40998 14.3261 7.40998 14.3281C7.40998 14.3301 7.40998 14.3321 7.40998 14.3341C7.40998 14.3361 7.40998 14.3381 7.40998 14.3401C7.40998 14.3421 7.40998 14.3441 7.40998 14.3461C7.40998 14.348 7.40998 14.35 7.40998 14.352C7.40998 14.354 7.40998 14.3559 7.40998 14.3579C7.40998 14.3599 7.40998 14.3618 7.40998 14.3638C7.40998 14.3657 7.40998 14.3677 7.40998 14.3696C7.40998 14.3716 7.40998 14.3735 7.40998 14.3754C7.40998 14.3774 7.40998 14.3793 7.40998 14.3813C7.40998 14.3832 7.40998 14.3851 7.40998 14.387C7.40998 14.389 7.40998 14.3909 7.40998 14.3928C7.40998 14.3947 7.40998 14.3966 7.40998 14.3985C7.40998 14.4004 7.40998 14.4023 7.40998 14.4042C7.40998 14.4061 7.40998 14.408 7.40998 14.4099C7.40998 14.4118 7.40998 14.4137 7.40998 14.4155C7.40998 14.4174 7.40998 14.4193 7.40998 14.4212C7.40998 14.423 7.40998 14.4249 7.40998 14.4268C7.40998 14.4286 7.40998 14.4305 7.40998 14.4323C7.40998 14.4342 7.40998 14.436 7.40998 14.4379C7.40998 14.4397 7.40998 14.4416 7.40998 14.4434C7.40998 14.4452 7.40998 14.4471 7.40998 14.4489C7.40998 14.4507 7.40998 14.4526 7.40998 14.4544C7.40998 14.4562 7.40998 14.458 7.40998 14.4598C7.40998 14.4616 7.40998 14.4634 7.40998 14.4652C7.40998 14.467 7.40998 14.4688 7.40998 14.4706C7.40998 14.4724 7.40998 14.4742 7.40998 14.476C7.40998 14.4778 7.40998 14.4795 7.40998 14.4813C7.40998 14.4831 7.40998 14.4848 7.40998 14.4866C7.40998 14.4884 7.40998 14.4901 7.40998 14.4919C7.40998 14.4936 7.40998 14.4954 7.40998 14.4971C7.40998 14.4989 7.40998 14.5006 7.40998 14.5023C7.40998 14.5041 7.40998 14.5058 7.40998 14.5075C7.40998 14.5093 7.40998 14.511 7.40998 14.5127C7.40998 14.5144 7.40998 14.5161 7.40998 14.5178C7.40998 14.5195 7.40998 14.5212 7.40998 14.5229C7.40998 14.5246 7.40998 14.5263 7.40998 14.528C7.40998 14.5297 7.40998 14.5314 7.40998 14.5331C7.40998 14.5347 7.40998 14.5364 7.40998 14.5381C7.40998 14.5397 7.40998 14.5414 7.40998 14.5431C7.40998 14.5447 7.40998 14.5464 7.40998 14.548C7.40998 14.5497 7.40998 14.5513 7.40998 14.5529C7.40998 14.5546 7.40998 14.5562 7.40998 14.5578C7.40998 14.5595 7.40998 14.5611 7.40998 14.5627C7.40998 14.5643 7.40998 14.5659 7.40998 14.5675C7.40998 14.5692 7.40998 14.5708 7.40998 14.5724C7.40998 14.574 7.40998 14.5755 7.40998 14.5771C7.40998 14.5787 7.40998 14.5803 7.40998 14.5819C7.40998 14.5835 7.40998 14.585 7.40998 14.5866C7.40998 14.5882 7.40998 14.5897 7.40998 14.5913C7.40998 14.5928 7.40998 14.5944 7.40998 14.5959C7.40998 14.5975 7.40998 14.599 7.40998 14.6005C7.40998 14.6021 7.40998 14.6036 7.40998 14.6051C7.40998 14.6067 7.40998 14.6082 7.40998 14.6097C7.40998 14.6112 7.40998 14.6127 7.40998 14.6142C7.40998 14.6157 7.40998 14.6172 7.40998 14.6187C7.40998 14.6202 7.40998 14.6217 7.40998 14.6232C7.40998 14.6246 7.40998 14.6261 7.40998 14.6276C7.40998 14.6291 7.40998 14.6305 7.40998 14.632C7.40998 14.6334 7.40998 14.6349 7.40998 14.6363C7.40998 14.6378 7.40998 14.6392 7.40998 14.6407C7.40998 14.6421 7.40998 14.6435 7.40998 14.645C7.40998 14.6464 7.40998 14.6478 7.40998 14.6492C7.40998 14.6507 7.40998 14.6521 7.40998 14.6535C7.40998 14.6549 7.40998 14.6563 7.40998 14.6577C7.40998 14.6591 7.40998 14.6604 7.40998 14.6618C7.40998 14.6632 7.40998 14.6646 7.40998 14.666C7.40998 14.6673 7.40998 14.6687 7.40998 14.67C7.40998 14.6714 7.40998 14.6728 7.40998 14.6741C7.40998 14.6755 7.40998 14.6768 7.40998 14.6781C7.40998 14.6795 7.40998 14.6808 7.40998 14.6821C7.40998 14.6834 7.40998 14.6848 7.40998 14.6861C7.40998 14.6874 7.40998 14.6887 7.40998 14.69C7.40998 14.6913 7.40998 14.6926 7.40998 14.6939C7.40998 14.6952 7.40998 14.6965 7.40998 14.6977C7.40998 14.699 7.40998 14.7003 7.40998 14.7016C7.40998 14.7028 7.40998 14.7041 7.40998 14.7053C7.40998 14.7066 7.40998 14.7078 7.40998 14.7091C7.40998 14.7103 7.40998 14.7116 7.40998 14.7128C7.40998 14.714 7.40998 14.7152 7.40998 14.7165C7.40998 14.7177 7.40998 14.7189 7.40998 14.7201C7.40998 14.7213 7.40998 14.7225 7.40998 14.7237C7.40998 14.7249 7.40998 14.7261 7.40998 14.7273C7.40998 14.7284 7.40998 14.7296 7.40998 14.7308C7.40998 14.732 7.40998 14.7331 7.40998 14.7343C7.40998 14.7354 7.40998 14.7366 7.40998 14.7377C7.40998 14.7389 7.40998 14.74 7.40998 14.7412C7.40998 14.7423 7.40998 14.7434 7.40998 14.7445C7.40998 14.7457 7.40998 14.7468 7.40998 14.7479C7.40998 14.749 7.40998 14.7501 7.40998 14.7512C7.40998 14.7523 7.40998 14.7534 7.40998 14.7544C7.40998 14.7555 7.40998 14.7566 7.40998 14.7577C7.40998 14.7587 7.40998 14.7598 7.40998 14.7609C7.40998 14.7619 7.40998 14.763 7.40998 14.764C7.40998 14.7651 7.40998 14.7661 7.40998 14.7671C7.40998 14.7682 7.40998 14.7692 7.40998 14.7702C7.40998 14.7712 7.40998 14.7722 7.40998 14.7732C7.40998 14.7742 7.40998 14.7752 7.40998 14.7762C7.40998 14.7772 7.40998 14.7782 7.40998 14.7792C7.40998 14.7802 7.40998 14.7811 7.40998 14.7821C7.40998 14.7831 7.40998 14.784 7.40998 14.785C7.40998 14.7859 7.40998 14.7869 7.40998 14.7878C7.40998 14.7888 7.40998 14.7897 7.40998 14.7906C7.40998 14.7916 7.40998 14.7925 7.40998 14.7934C7.40998 14.7943 7.40998 14.7952 7.40998 14.7961C7.40998 14.797 7.40998 14.7979 7.40998 14.7988C7.40998 14.7997 7.40998 14.8006 7.40998 14.8014C7.40998 14.8023 7.40998 14.8032 7.40998 14.804C7.40998 14.8049 7.40998 14.8058 7.40998 14.8066C7.40998 14.8074 7.40998 14.8083 7.40998 14.8091C7.40998 14.8099 7.40998 14.8108 7.40998 14.8116C7.40998 14.8124 7.40998 14.8132 7.40998 14.814C7.40998 14.8148 7.40998 14.8156 7.40998 14.8164C7.40998 14.8172 7.40998 14.818 7.40998 14.8188C7.40998 14.8196 7.40998 14.8203 7.40998 14.8211C7.40998 14.8219 7.40998 14.8226 7.40998 14.8234C7.40998 14.8241 7.40998 14.8249 7.40998 14.8256C7.40998 14.8263 7.40998 14.8271 7.40998 14.8278C7.40998 14.8285 7.40998 14.8292 7.40998 14.8299C7.40998 14.8306 7.40998 14.8313 7.40998 14.832C7.40998 14.8327 7.40998 14.8334 7.40998 14.8341C7.40998 14.8348 7.40998 14.8354 7.40998 14.8361C7.40998 14.8368 7.40998 14.8374 7.40998 14.8381C7.40998 14.8387 7.40998 14.8394 7.40998 14.84C7.40998 14.8406 7.40998 14.8413 7.40998 14.8419C7.40998 14.8425 7.40998 14.8431 7.40998 14.8437C7.40998 14.8443 7.40998 14.8449 7.40998 14.8455C7.40998 14.8461 7.40998 14.8467 7.40998 14.8473C7.40998 14.8479 7.40998 14.8484 7.40998 14.849C7.40998 14.8496 7.40998 14.8501 7.40998 14.8507C7.40998 14.8512 7.40998 14.8517 7.40998 14.8523C7.40998 14.8528 7.40998 14.8533 7.40998 14.8539C7.40998 14.8544 7.40998 14.8549 7.40998 14.8554C7.40998 14.8559 7.40998 14.8564 7.40998 14.8569C7.40998 14.8574 7.40998 14.8579 7.40998 14.8583C7.40998 14.8588 7.40998 14.8593 7.40998 14.8597C7.40998 14.8602 7.40998 14.8606 7.40998 14.8611C7.40998 14.8615 7.40998 14.862 7.40998 14.8624C7.40998 14.8628 7.40998 14.8632 7.40998 14.8637C7.40998 14.8641 7.40998 14.8645 7.40998 14.8649C7.40998 14.8653 7.40998 14.8657 7.40998 14.8661C7.40998 14.8664 7.40998 14.8668 7.40998 14.8672C7.40998 14.8675 7.40998 14.8679 7.40998 14.8683C7.40998 14.8686 7.40998 14.869 7.40998 14.8693C7.40998 14.8696 7.40998 14.87 7.40998 14.8703C7.40998 14.8706 7.40998 14.8709 7.40998 14.8712C7.40998 14.8715 7.40998 14.8718 7.40998 14.8721C7.40998 14.8724 7.40998 14.8727 7.40998 14.873C7.40998 14.8732 7.40998 14.8735 7.40998 14.8738C7.40998 14.874 7.40998 14.8743 7.40998 14.8745C7.40998 14.8748 7.40998 14.875 7.40998 14.8752C7.40998 14.8755 7.40998 14.8757 7.40998 14.8759C7.40998 14.8761 7.40998 14.8763 7.40998 14.8765C7.40998 14.8767 7.40998 14.8769 7.40998 14.8771C7.40998 14.8772 7.40998 14.8774 7.40998 14.8776C7.40998 14.8777 7.40998 14.8779 7.40998 14.878C7.40998 14.8782 7.40998 14.8783 7.40998 14.8785C7.40998 14.8786 7.40998 14.8787 7.40998 14.8788C7.40998 14.8789 7.40998 14.879 7.40998 14.8791C7.40998 14.8792 7.40998 14.8793 7.40998 14.8794C7.40998 14.8795 7.40998 14.8796 7.40998 14.8796C7.40998 14.8797 7.40998 14.8798 7.40998 14.8798C7.40998 14.8799 7.40998 14.8799 7.40998 14.8799C7.40998 14.88 7.40998 14.88 7.40998 14.88C7.40998 14.88 7.40998 14.88 8.15998 14.88C8.90998 14.88 8.90998 14.88 8.90998 14.88C8.90998 14.88 8.90998 14.88 8.90998 14.8799C8.90998 14.8799 8.90998 14.8799 8.90998 14.8798C8.90998 14.8798 8.90998 14.8797 8.90998 14.8796C8.90998 14.8796 8.90998 14.8795 8.90998 14.8794C8.90998 14.8793 8.90998 14.8792 8.90998 14.8791C8.90998 14.879 8.90998 14.8789 8.90998 14.8788C8.90998 14.8787 8.90998 14.8786 8.90998 14.8785C8.90998 14.8783 8.90998 14.8782 8.90998 14.878C8.90998 14.8779 8.90998 14.8777 8.90998 14.8776C8.90998 14.8774 8.90998 14.8772 8.90998 14.8771C8.90998 14.8769 8.90998 14.8767 8.90998 14.8765C8.90998 14.8763 8.90998 14.8761 8.90998 14.8759C8.90998 14.8757 8.90998 14.8755 8.90998 14.8752C8.90998 14.875 8.90998 14.8748 8.90998 14.8745C8.90998 14.8743 8.90998 14.874 8.90998 14.8738C8.90998 14.8735 8.90998 14.8732 8.90998 14.873C8.90998 14.8727 8.90998 14.8724 8.90998 14.8721C8.90998 14.8718 8.90998 14.8715 8.90998 14.8712C8.90998 14.8709 8.90998 14.8706 8.90998 14.8703C8.90998 14.87 8.90998 14.8696 8.90998 14.8693C8.90998 14.869 8.90998 14.8686 8.90998 14.8683C8.90998 14.8679 8.90998 14.8675 8.90998 14.8672C8.90998 14.8668 8.90998 14.8664 8.90998 14.8661C8.90998 14.8657 8.90998 14.8653 8.90998 14.8649C8.90998 14.8645 8.90998 14.8641 8.90998 14.8637C8.90998 14.8632 8.90998 14.8628 8.90998 14.8624C8.90998 14.862 8.90998 14.8615 8.90998 14.8611C8.90998 14.8606 8.90998 14.8602 8.90998 14.8597C8.90998 14.8593 8.90998 14.8588 8.90998 14.8583C8.90998 14.8579 8.90998 14.8574 8.90998 14.8569C8.90998 14.8564 8.90998 14.8559 8.90998 14.8554C8.90998 14.8549 8.90998 14.8544 8.90998 14.8539C8.90998 14.8533 8.90998 14.8528 8.90998 14.8523C8.90998 14.8517 8.90998 14.8512 8.90998 14.8507C8.90998 14.8501 8.90998 14.8496 8.90998 14.849C8.90998 14.8484 8.90998 14.8479 8.90998 14.8473C8.90998 14.8467 8.90998 14.8461 8.90998 14.8455C8.90998 14.8449 8.90998 14.8443 8.90998 14.8437C8.90998 14.8431 8.90998 14.8425 8.90998 14.8419C8.90998 14.8413 8.90998 14.8406 8.90998 14.84C8.90998 14.8394 8.90998 14.8387 8.90998 14.8381C8.90998 14.8374 8.90998 14.8368 8.90998 14.8361C8.90998 14.8354 8.90998 14.8348 8.90998 14.8341C8.90998 14.8334 8.90998 14.8327 8.90998 14.832C8.90998 14.8313 8.90998 14.8306 8.90998 14.8299C8.90998 14.8292 8.90998 14.8285 8.90998 14.8278C8.90998 14.8271 8.90998 14.8263 8.90998 14.8256C8.90998 14.8249 8.90998 14.8241 8.90998 14.8234C8.90998 14.8226 8.90998 14.8219 8.90998 14.8211C8.90998 14.8203 8.90998 14.8196 8.90998 14.8188C8.90998 14.818 8.90998 14.8172 8.90998 14.8164C8.90998 14.8156 8.90998 14.8148 8.90998 14.814C8.90998 14.8132 8.90998 14.8124 8.90998 14.8116C8.90998 14.8108 8.90998 14.8099 8.90998 14.8091C8.90998 14.8083 8.90998 14.8074 8.90998 14.8066C8.90998 14.8058 8.90998 14.8049 8.90998 14.804C8.90998 14.8032 8.90998 14.8023 8.90998 14.8014C8.90998 14.8006 8.90998 14.7997 8.90998 14.7988C8.90998 14.7979 8.90998 14.797 8.90998 14.7961C8.90998 14.7952 8.90998 14.7943 8.90998 14.7934C8.90998 14.7925 8.90998 14.7916 8.90998 14.7906C8.90998 14.7897 8.90998 14.7888 8.90998 14.7878C8.90998 14.7869 8.90998 14.7859 8.90998 14.785C8.90998 14.784 8.90998 14.7831 8.90998 14.7821C8.90998 14.7811 8.90998 14.7802 8.90998 14.7792C8.90998 14.7782 8.90998 14.7772 8.90998 14.7762C8.90998 14.7752 8.90998 14.7742 8.90998 14.7732C8.90998 14.7722 8.90998 14.7712 8.90998 14.7702C8.90998 14.7692 8.90998 14.7682 8.90998 14.7671C8.90998 14.7661 8.90998 14.7651 8.90998 14.764C8.90998 14.763 8.90998 14.7619 8.90998 14.7609C8.90998 14.7598 8.90998 14.7587 8.90998 14.7577C8.90998 14.7566 8.90998 14.7555 8.90998 14.7544C8.90998 14.7534 8.90998 14.7523 8.90998 14.7512C8.90998 14.7501 8.90998 14.749 8.90998 14.7479C8.90998 14.7468 8.90998 14.7457 8.90998 14.7445C8.90998 14.7434 8.90998 14.7423 8.90998 14.7412C8.90998 14.74 8.90998 14.7389 8.90998 14.7377C8.90998 14.7366 8.90998 14.7354 8.90998 14.7343C8.90998 14.7331 8.90998 14.732 8.90998 14.7308C8.90998 14.7296 8.90998 14.7284 8.90998 14.7273C8.90998 14.7261 8.90998 14.7249 8.90998 14.7237C8.90998 14.7225 8.90998 14.7213 8.90998 14.7201C8.90998 14.7189 8.90998 14.7177 8.90998 14.7165C8.90998 14.7152 8.90998 14.714 8.90998 14.7128C8.90998 14.7116 8.90998 14.7103 8.90998 14.7091C8.90998 14.7078 8.90998 14.7066 8.90998 14.7053C8.90998 14.7041 8.90998 14.7028 8.90998 14.7016C8.90998 14.7003 8.90998 14.699 8.90998 14.6977C8.90998 14.6965 8.90998 14.6952 8.90998 14.6939C8.90998 14.6926 8.90998 14.6913 8.90998 14.69C8.90998 14.6887 8.90998 14.6874 8.90998 14.6861C8.90998 14.6848 8.90998 14.6834 8.90998 14.6821C8.90998 14.6808 8.90998 14.6795 8.90998 14.6781C8.90998 14.6768 8.90998 14.6755 8.90998 14.6741C8.90998 14.6728 8.90998 14.6714 8.90998 14.67C8.90998 14.6687 8.90998 14.6673 8.90998 14.666C8.90998 14.6646 8.90998 14.6632 8.90998 14.6618C8.90998 14.6604 8.90998 14.6591 8.90998 14.6577C8.90998 14.6563 8.90998 14.6549 8.90998 14.6535C8.90998 14.6521 8.90998 14.6507 8.90998 14.6492C8.90998 14.6478 8.90998 14.6464 8.90998 14.645C8.90998 14.6435 8.90998 14.6421 8.90998 14.6407C8.90998 14.6392 8.90998 14.6378 8.90998 14.6363C8.90998 14.6349 8.90998 14.6334 8.90998 14.632C8.90998 14.6305 8.90998 14.6291 8.90998 14.6276C8.90998 14.6261 8.90998 14.6246 8.90998 14.6232C8.90998 14.6217 8.90998 14.6202 8.90998 14.6187C8.90998 14.6172 8.90998 14.6157 8.90998 14.6142C8.90998 14.6127 8.90998 14.6112 8.90998 14.6097C8.90998 14.6082 8.90998 14.6067 8.90998 14.6051C8.90998 14.6036 8.90998 14.6021 8.90998 14.6005C8.90998 14.599 8.90998 14.5975 8.90998 14.5959C8.90998 14.5944 8.90998 14.5928 8.90998 14.5913C8.90998 14.5897 8.90998 14.5882 8.90998 14.5866C8.90998 14.585 8.90998 14.5835 8.90998 14.5819C8.90998 14.5803 8.90998 14.5787 8.90998 14.5771C8.90998 14.5755 8.90998 14.574 8.90998 14.5724C8.90998 14.5708 8.90998 14.5692 8.90998 14.5675C8.90998 14.5659 8.90998 14.5643 8.90998 14.5627C8.90998 14.5611 8.90998 14.5595 8.90998 14.5578C8.90998 14.5562 8.90998 14.5546 8.90998 14.5529C8.90998 14.5513 8.90998 14.5497 8.90998 14.548C8.90998 14.5464 8.90998 14.5447 8.90998 14.5431C8.90998 14.5414 8.90998 14.5397 8.90998 14.5381C8.90998 14.5364 8.90998 14.5347 8.90998 14.5331C8.90998 14.5314 8.90998 14.5297 8.90998 14.528C8.90998 14.5263 8.90998 14.5246 8.90998 14.5229C8.90998 14.5212 8.90998 14.5195 8.90998 14.5178C8.90998 14.5161 8.90998 14.5144 8.90998 14.5127C8.90998 14.511 8.90998 14.5093 8.90998 14.5075C8.90998 14.5058 8.90998 14.5041 8.90998 14.5023C8.90998 14.5006 8.90998 14.4989 8.90998 14.4971C8.90998 14.4954 8.90998 14.4936 8.90998 14.4919C8.90998 14.4901 8.90998 14.4884 8.90998 14.4866C8.90998 14.4848 8.90998 14.4831 8.90998 14.4813C8.90998 14.4795 8.90998 14.4778 8.90998 14.476C8.90998 14.4742 8.90998 14.4724 8.90998 14.4706C8.90998 14.4688 8.90998 14.467 8.90998 14.4652C8.90998 14.4634 8.90998 14.4616 8.90998 14.4598C8.90998 14.458 8.90998 14.4562 8.90998 14.4544C8.90998 14.4526 8.90998 14.4507 8.90998 14.4489C8.90998 14.4471 8.90998 14.4452 8.90998 14.4434C8.90998 14.4416 8.90998 14.4397 8.90998 14.4379C8.90998 14.436 8.90998 14.4342 8.90998 14.4323C8.90998 14.4305 8.90998 14.4286 8.90998 14.4268C8.90998 14.4249 8.90998 14.423 8.90998 14.4212C8.90998 14.4193 8.90998 14.4174 8.90998 14.4155C8.90998 14.4137 8.90998 14.4118 8.90998 14.4099C8.90998 14.408 8.90998 14.4061 8.90998 14.4042C8.90998 14.4023 8.90998 14.4004 8.90998 14.3985C8.90998 14.3966 8.90998 14.3947 8.90998 14.3928C8.90998 14.3909 8.90998 14.389 8.90998 14.387C8.90998 14.3851 8.90998 14.3832 8.90998 14.3813C8.90998 14.3793 8.90998 14.3774 8.90998 14.3754C8.90998 14.3735 8.90998 14.3716 8.90998 14.3696C8.90998 14.3677 8.90998 14.3657 8.90998 14.3638C8.90998 14.3618 8.90998 14.3599 8.90998 14.3579C8.90998 14.3559 8.90998 14.354 8.90998 14.352C8.90998 14.35 8.90998 14.348 8.90998 14.3461C8.90998 14.3441 8.90998 14.3421 8.90998 14.3401C8.90998 14.3381 8.90998 14.3361 8.90998 14.3341C8.90998 14.3321 8.90998 14.3301 8.90998 14.3281C8.90998 14.3261 8.90998 14.3241 8.90998 14.3221C8.90998 14.3201 8.90998 14.3181 8.90998 14.3161C8.90998 14.3141 8.90998 14.312 8.90998 14.31C8.90998 14.308 8.90998 14.306 8.90998 14.3039C8.90998 14.3019 8.90998 14.2999 8.90998 14.2978C8.90998 14.2958 8.90998 14.2937 8.90998 14.2917C8.90998 14.2896 8.90998 14.2876 8.90998 14.2855C8.90998 14.2835 8.90998 14.2814 8.90998 14.2793C8.90998 14.2773 8.90998 14.2752 8.90998 14.2731C8.90998 14.2711 8.90998 14.269 8.90998 14.2669C8.90998 14.2648 8.90998 14.2628 8.90998 14.2607C8.90998 14.2586 8.90998 14.2565 8.90998 14.2544C8.90998 14.2523 8.90998 14.2502 8.90998 14.2481C8.90998 14.246 8.90998 14.2439 8.90998 14.2418C8.90998 14.2397 8.90998 14.2376 8.90998 14.2355C8.90998 14.2334 8.90998 14.2312 8.90998 14.2291C8.90998 14.227 8.90998 14.2249 8.90998 14.2227C8.90998 14.2206 8.90998 14.2185 8.90998 14.2164C8.90998 14.2142 8.90998 14.2121 8.90998 14.2099C8.90998 14.2078 8.90998 14.2057 8.90998 14.2035C8.90998 14.2014 8.90998 14.1992 8.90998 14.1971C8.90998 14.1949 8.90998 14.1927 8.90998 14.1906C8.90998 14.1884 8.90998 14.1863 8.90998 14.1841C8.90998 14.1819 8.90998 14.1797 8.90998 14.1776C8.90998 14.1754 8.90998 14.1732 8.90998 14.171C8.90998 14.1689 8.90998 14.1667 8.90998 14.1645C8.90998 14.1623 8.90998 14.1601 8.90998 14.1579C8.90998 14.1557 8.90998 14.1535 8.90998 14.1513C8.90998 14.1491 8.90998 14.1469 8.90998 14.1447C8.90998 14.1425 8.90998 14.1403 8.90998 14.1381C8.90998 14.1359 8.90998 14.1336 8.90998 14.1314C8.90998 14.1292 8.90998 14.127 8.90998 14.1248C8.90998 14.1225 8.90998 14.1203 8.90998 14.1181C8.90998 14.1158 8.90998 14.1136 8.90998 14.1114C8.90998 14.1091 8.90998 14.1069 8.90998 14.1047C8.90998 14.1024 8.90998 14.1002 8.90998 14.0979C8.90998 14.0957 8.90998 14.0934 8.90998 14.0912C8.90998 14.0889 8.90998 14.0866 8.90998 14.0844C8.90998 14.0821 8.90998 14.0799 8.90998 14.0776C8.90998 14.0753 8.90998 14.0731 8.90998 14.0708C8.90998 14.0685 8.90998 14.0662 8.90998 14.064C8.90998 14.0617 8.90998 14.0594 8.90998 14.0571C8.90998 14.0548 8.90998 14.0526 8.90998 14.0503C8.90998 14.048 8.90998 14.0457 8.90998 14.0434C8.90998 14.0411 8.90998 14.0388 8.90998 14.0365C8.90998 14.0342 8.90998 14.0319 8.90998 14.0296C8.90998 14.0273 8.90998 14.025 8.90998 14.0227C8.90998 14.0204 8.90998 14.018 8.90998 14.0157C8.90998 14.0134 8.90998 14.0111 8.90998 14.0088C8.90998 14.0064 8.90998 14.0041 8.90998 14.0018C8.90998 13.9995 8.90998 13.9971 8.90998 13.9948C8.90998 13.9925 8.90998 13.9901 8.90998 13.9878C8.90998 13.9855 8.90998 13.9831 8.90998 13.9808C8.90998 13.9785 8.90998 13.9761 8.90998 13.9738C8.90998 13.9714 8.90998 13.9691 8.90998 13.9667C8.90998 13.9644 8.90998 13.962 8.90998 13.9597C8.90998 13.9573 8.90998 13.9549 8.90998 13.9526C8.90998 13.9502 8.90998 13.9479 8.90998 13.9455C8.90998 13.9431 8.90998 13.9408 8.90998 13.9384C8.90998 13.936 8.90998 13.9336 8.90998 13.9313C8.90998 13.9289 8.90998 13.9265 8.90998 13.9241C8.90998 13.9218 8.90998 13.9194 8.90998 13.917C8.90998 13.9146 8.90998 13.9122 8.90998 13.9098C8.90998 13.9075 8.90998 13.9051 8.90998 13.9027C8.90998 13.9003 8.90998 13.8979 8.90998 13.8955C8.90998 13.8931 8.90998 13.8907 8.90998 13.8883C8.90998 13.8859 8.90998 13.8835 8.90998 13.8811C8.90998 13.8787 8.90998 13.8763 8.90998 13.8739C8.90998 13.8714 8.90998 13.869 8.90998 13.8666C8.90998 13.8642 8.90998 13.8618 8.90998 13.8594C8.90998 13.857 8.90998 13.8545 8.90998 13.8521C8.90998 13.8497 8.90998 13.8473 8.90998 13.8448C8.90998 13.8424 8.90998 13.84 8.90998 13.8376C8.90998 13.8351 8.90998 13.8327 8.90998 13.8303C8.90998 13.8278 8.90998 13.8254 8.90998 13.823C8.90998 13.8205 8.90998 13.8181 8.90998 13.8156C8.90998 13.8132 8.90998 13.8108 8.90998 13.8083C8.90998 13.8059 8.90998 13.8034 8.90998 13.801C8.90998 13.7985 8.90998 13.7961 8.90998 13.7936C8.90998 13.7912 8.90998 13.7887 8.90998 13.7863C8.90998 13.7838 8.90998 13.7813 8.90998 13.7789C8.90998 13.7764 8.90998 13.774 8.90998 13.7715C8.90998 13.769 8.90998 13.7666 8.90998 13.7641C8.90998 13.7616 8.90998 13.7592 8.90998 13.7567C8.90998 13.7542 8.90998 13.7518 8.90998 13.7493C8.90998 13.7468 8.90998 13.7443 8.90998 13.7419C8.90998 13.7394 8.90998 13.7369 8.90998 13.7344C8.90998 13.732 8.90998 13.7295 8.90998 13.727C8.90998 13.7245 8.90998 13.722 8.90998 13.7195C8.90998 13.7171 8.90998 13.7146 8.90998 13.7121C8.90998 13.7096 8.90998 13.7071 8.90998 13.7046C8.90998 13.7021 8.90998 13.6996 8.90998 13.6971C8.90998 13.6946 8.90998 13.6921 8.90998 13.6897C8.90998 13.6872 8.90998 13.6847 8.90998 13.6822C8.90998 13.6797 8.90998 13.6772 8.90998 13.6747C8.90998 13.6722 8.90998 13.6696 8.90998 13.6671C8.90998 13.6646 8.90998 13.6621 8.90998 13.6596C8.90998 13.6571 8.90998 13.6546 8.90998 13.6521C8.90998 13.6496 8.90998 13.6471 8.90998 13.6446C8.90998 13.6421 8.90998 13.6395 8.90998 13.637C8.90998 13.6345 8.90998 13.632 8.90998 13.6295C8.90998 13.627 8.90998 13.6244 8.90998 13.6219C8.90998 13.6194 8.90998 13.6169 8.90998 13.6144C8.90998 13.6118 8.90998 13.6093 8.90998 13.6068C8.90998 13.6043 8.90998 13.6017 8.90998 13.5992C8.90998 13.5967 8.90998 13.5942 8.90998 13.5916C8.90998 13.5891 8.90998 13.5866 8.90998 13.584C8.90998 13.5815 8.90998 13.579 8.90998 13.5764C8.90998 13.5739 8.90998 13.5714 8.90998 13.5688C8.90998 13.5663 8.90998 13.5638 8.90998 13.5612C8.90998 13.5587 8.90998 13.5562 8.90998 13.5536C8.90998 13.5511 8.90998 13.5485 8.90998 13.546C8.90998 13.5435 8.90998 13.5409 8.90998 13.5384C8.90998 13.5358 8.90998 13.5333 8.90998 13.5307C8.90998 13.5282 8.90998 13.5256 8.90998 13.5231C8.90998 13.5206 8.90998 13.518 8.90998 13.5155C8.90998 13.5129 8.90998 13.5104 8.90998 13.5078C8.90998 13.5053 8.90998 13.5027 8.90998 13.5002C8.90998 13.4976 8.90998 13.4951 8.90998 13.4925C8.90998 13.49 8.90998 13.4874 8.90998 13.4849C8.90998 13.4823 8.90998 13.4798 8.90998 13.4772C8.90998 13.4746 8.90998 13.4721 8.90998 13.4695C8.90998 13.467 8.90998 13.4644 8.90998 13.4619C8.90998 13.4593 8.90998 13.4567 8.90998 13.4542C8.90998 13.4516 8.90998 13.4491 8.90998 13.4465C8.90998 13.444 8.90998 13.4414 8.90998 13.4388C8.90998 13.4363 8.90998 13.4337 8.90998 13.4311C8.90998 13.4286 8.90998 13.426 8.90998 13.4235C8.90998 13.4209 8.90998 13.4183 8.90998 13.4158C8.90998 13.4132 8.90998 13.4106 8.90998 13.4081C8.90998 13.4055 8.90998 13.403 8.90998 13.4004C8.90998 13.3978 8.90998 13.3953 8.90998 13.3927C8.90998 13.3901 8.90998 13.3876 8.90998 13.385C8.90998 13.3824 8.90998 13.3799 8.90998 13.3773C8.90998 13.3747 8.90998 13.3722 8.90998 13.3696C8.90998 13.367 8.90998 13.3645 8.90998 13.3619C8.90998 13.3593 8.90998 13.3568 8.90998 13.3542C8.90998 13.3516 8.90998 13.349 8.90998 13.3465C8.90998 13.3439 8.90998 13.3413 8.90998 13.3388C8.90998 13.3362 8.90998 13.3336 8.90998 13.3311C8.90998 13.3285 8.90998 13.3259 8.90998 13.3233C8.90998 13.3208 8.90998 13.3182 8.90998 13.3156C8.90998 13.3131 8.90998 13.3105 8.90998 13.3079C8.90998 13.3054 8.90998 13.3028 8.90998 13.3002C8.90998 13.2976 8.90998 13.2951 8.90998 13.2925C8.90998 13.2899 8.90998 13.2874 8.90998 13.2848C8.90998 13.2822 8.90998 13.2796 8.90998 13.2771C8.90998 13.2745 8.90998 13.2719 8.90998 13.2694C8.90998 13.2668 8.90998 13.2642 8.90998 13.2617C8.90998 13.2591 8.90998 13.2565 8.90998 13.2539C8.90998 13.2514 8.90998 13.2488 8.90998 13.2462C8.90998 13.2437 8.90998 13.2411 8.90998 13.2385C8.90998 13.236 8.90998 13.2334 8.90998 13.2308C8.90998 13.2282 8.90998 13.2257 8.90998 13.2231C8.90998 13.2205 8.90998 13.218 8.90998 13.2154C8.90998 13.2128 8.90998 13.2103 8.90998 13.2077C8.90998 13.2051 8.90998 13.2026 8.90998 13.2C8.90998 13.1974 8.90998 13.1949 8.90998 13.1923C8.90998 13.1897 8.90998 13.1872 8.90998 13.1846C8.90998 13.182 8.90998 13.1795 8.90998 13.1769C8.90998 13.1743 8.90998 13.1718 8.90998 13.1692C8.90998 13.1666 8.90998 13.1641 8.90998 13.1615C8.90998 13.159 8.90998 13.1564 8.90998 13.1538C8.90998 13.1513 8.90998 13.1487 8.90998 13.1461C8.90998 13.1436 8.90998 13.141 8.90998 13.1385C8.90998 13.1359 8.90998 13.1333 8.90998 13.1308C8.90998 13.1282 8.90998 13.1257 8.90998 13.1231C8.90998 13.1206 8.90998 13.118 8.90998 13.1154C8.90998 13.1129 8.90998 13.1103 8.90998 13.1078C8.90998 13.1052 8.90998 13.1027 8.90998 13.1001C8.90998 13.0975 8.90998 13.095 8.90998 13.0924C8.90998 13.0899 8.90998 13.0873 8.90998 13.0848C8.90998 13.0822 8.90998 13.0797 8.90998 13.0771C8.90998 13.0746 8.90998 13.072 8.90998 13.0695C8.90998 13.0669 8.90998 13.0644 8.90998 13.0618C8.90998 13.0593 8.90998 13.0567 8.90998 13.0542C8.90998 13.0517 8.90998 13.0491 8.90998 13.0466C8.90998 13.044 8.90998 13.0415 8.90998 13.0389C8.90998 13.0364 8.90998 13.0339 8.90998 13.0313C8.90998 13.0288 8.90998 13.0262 8.90998 13.0237C8.90998 13.0212 8.90998 13.0186 8.90998 13.0161C8.90998 13.0135 8.90998 13.011 8.90998 13.0085C8.90998 13.0059 8.90998 13.0034 8.90998 13.0009C8.90998 12.9983 8.90998 12.9958 8.90998 12.9933C8.90998 12.9907 8.90998 12.9882 8.90998 12.9857C8.90998 12.9832 8.90998 12.9806 8.90998 12.9781C8.90998 12.9756 8.90998 12.9731 8.90998 12.9705C8.90998 12.968 8.90998 12.9655 8.90998 12.963C8.90998 12.9604 8.90998 12.9579 8.90998 12.9554C8.90998 12.9529 8.90998 12.9504 8.90998 12.9478C8.90998 12.9453 8.90998 12.9428 8.90998 12.9403C8.90998 12.9378 8.90998 12.9353 8.90998 12.9328C8.90998 12.9302 8.90998 12.9277 8.90998 12.9252C8.90998 12.9227 8.90998 12.9202 8.90998 12.9177C8.90998 12.9152 8.90998 12.9127 8.90998 12.9102C8.90998 12.9077 8.90998 12.9052 8.90998 12.9027C8.90998 12.9002 8.90998 12.8977 8.90998 12.8952C8.90998 12.8927 8.90998 12.8902 8.90998 12.8877C8.90998 12.8852 8.90998 12.8827 8.90998 12.8802C8.90998 12.8777 8.90998 12.8752 8.90998 12.8727C8.90998 12.8702 8.90998 12.8677 8.90998 12.8652C8.90998 12.8628 8.90998 12.8603 8.90998 12.8578C8.90998 12.8553 8.90998 12.8528 8.90998 12.8503C8.90998 12.8478 8.90998 12.8454 8.90998 12.8429C8.90998 12.8404 8.90998 12.8379 8.90998 12.8355C8.90998 12.833 8.90998 12.8305 8.90998 12.828C8.90998 12.8256 8.90998 12.8231 8.90998 12.8206C8.90998 12.8182 8.90998 12.8157 8.90998 12.8132C8.90998 12.8108 8.90998 12.8083 8.90998 12.8058C8.90998 12.8034 8.90998 12.8009 8.90998 12.7985C8.90998 12.796 8.90998 12.7935 8.90998 12.7911C8.90998 12.7886 8.90998 12.7862 8.90998 12.7837C8.90998 12.7813 8.90998 12.7788 8.90998 12.7764C8.90998 12.7739 8.90998 12.7715 8.90998 12.769C8.90998 12.7666 8.90998 12.7641 8.90998 12.7617C8.90998 12.7593 8.90998 12.7568 8.90998 12.7544C8.90998 12.752 8.90998 12.7495 8.90998 12.7471C8.90998 12.7446 8.90998 12.7422 8.90998 12.7398C8.90998 12.7374 8.90998 12.7349 8.90998 12.7325C8.90998 12.7301 8.90998 12.7277 8.90998 12.7252C8.90998 12.7228 8.90998 12.7204 8.90998 12.718C8.90998 12.7156 8.90998 12.7131 8.90998 12.7107C8.90998 12.7083 8.90998 12.7059 8.90998 12.7035C8.90998 12.7011 8.90998 12.6987 8.90998 12.6963C8.90998 12.6939 8.90998 12.6915 8.90998 12.6891C8.90998 12.6867 8.90998 12.6843 8.90998 12.6819C8.90998 12.6795 8.90998 12.6771 8.90998 12.6747C8.90998 12.6723 8.90998 12.6699 8.90998 12.6675C8.90998 12.6651 8.90998 12.6627 8.90998 12.6604C8.90998 12.658 8.90998 12.6556 8.90998 12.6532C8.90998 12.6508 8.90998 12.6485 8.90998 12.6461C8.90998 12.6437 8.90998 12.6413 8.90998 12.639C8.90998 12.6366 8.90998 12.6342 8.90998 12.6319C8.90998 12.6295 8.90998 12.6271 8.90998 12.6248C8.90998 12.6224 8.90998 12.6201 8.90998 12.6177C8.90998 12.6154 8.90998 12.613 8.90998 12.6107C8.90998 12.6083 8.90998 12.606 8.90998 12.6036C8.90998 12.6013 8.90998 12.5989 8.90998 12.5966C8.90998 12.5942 8.90998 12.5919 8.90998 12.5896C8.90998 12.5872 8.90998 12.5849 8.90998 12.5826C8.90998 12.5802 8.90998 12.5779 8.90998 12.5756C8.90998 12.5733 8.90998 12.5709 8.90998 12.5686C8.90998 12.5663 8.90998 12.564 8.90998 12.5617C8.90998 12.5593 8.90998 12.557 8.90998 12.5547C8.90998 12.5524 8.90998 12.5501 8.90998 12.5478C8.90998 12.5455 8.90998 12.5432 8.90998 12.5409C8.90998 12.5386 8.90998 12.5363 8.90998 12.534C8.90998 12.5317 8.90998 12.5294 8.90998 12.5271C8.90998 12.5248 8.90998 12.5226 8.90998 12.5203C8.90998 12.518 8.90998 12.5157 8.90998 12.5134C8.90998 12.5112 8.90998 12.5089 8.90998 12.5066C8.90998 12.5043 8.90998 12.5021 8.90998 12.4998C8.90998 12.4975 8.90998 12.4953 8.90998 12.493C8.90998 12.4908 8.90998 12.4885 8.90998 12.4863C8.90998 12.484 8.90998 12.4817 8.90998 12.4795C8.90998 12.4773 8.90998 12.475 8.90998 12.4728C8.90998 12.4705 8.90998 12.4683 8.90998 12.466C8.90998 12.4638 8.90998 12.4616 8.90998 12.4593C8.90998 12.4571 8.90998 12.4549 8.90998 12.4527C8.90998 12.4504 8.90998 12.4482 8.90998 12.446C8.90998 12.4438 8.90998 12.4416 8.90998 12.4394C8.90998 12.4371 8.90998 12.4349 8.90998 12.4327C8.90998 12.4305 8.90998 12.4283 8.90998 12.4261C8.90998 12.4239 8.90998 12.4217 8.90998 12.4195C8.90998 12.4173 8.90998 12.4151 8.90998 12.413C8.90998 12.4108 8.90998 12.4086 8.90998 12.4064C8.90998 12.4042 8.90998 12.402 8.90998 12.3999C8.90998 12.3977 8.90998 12.3955 8.90998 12.3934C8.90998 12.3912 8.90998 12.389 8.90998 12.3869C8.90998 12.3847 8.90998 12.3826 8.90998 12.3804C8.90998 12.3782 8.90998 12.3761 8.90998 12.3739C8.90998 12.3718 8.90998 12.3697 8.90998 12.3675C8.90998 12.3654 8.90998 12.3632 8.90998 12.3611C8.90998 12.359 8.90998 12.3568 8.90998 12.3547C8.90998 12.3526 8.90998 12.3505 8.90998 12.3483C8.90998 12.3462 8.90998 12.3441 8.90998 12.342C8.90998 12.3399 8.90998 12.3378 8.90998 12.3357C8.90998 12.3336 8.90998 12.3315 8.90998 12.3294C8.90998 12.3273 8.90998 12.3252 8.90998 12.3231C8.90998 12.321 8.90998 12.3189 8.90998 12.3168C8.90998 12.3147 8.90998 12.3126 8.90998 12.3106C8.90998 12.3085 8.90998 12.3064 8.90998 12.3043C8.90998 12.3023 8.90998 12.3002 8.90998 12.2981C8.90998 12.2961 8.90998 12.294 8.90998 12.292C8.90998 12.2899 8.90998 12.2879 8.90998 12.2858C8.90998 12.2838 8.90998 12.2817 8.90998 12.2797C8.90998 12.2776 8.90998 12.2756 8.90998 12.2736C8.90998 12.2715 8.90998 12.2695 8.90998 12.2675C8.90998 12.2655 8.90998 12.2634 8.90998 12.2614C8.90998 12.2594 8.90998 12.2574 8.90998 12.2554C8.90998 12.2534 8.90998 12.2514 8.90998 12.2494C8.90998 12.2474 8.90998 12.2454 8.90998 12.2434C8.90998 12.2414 8.90998 12.2394 8.90998 12.2374C8.90998 12.2354 8.90998 12.2334 8.90998 12.2315C8.90998 12.2295 8.90998 12.2275 8.90998 12.2255C8.90998 12.2236 8.90998 12.2216 8.90998 12.2196C8.90998 12.2177 8.90998 12.2157 8.90998 12.2138C8.90998 12.2118 8.90998 12.2099 8.90998 12.2079C8.90998 12.206 8.90998 12.204 8.90998 12.2021C8.90998 12.2001 8.90998 12.1982 8.90998 12.1963C8.90998 12.1944 8.90998 12.1924 8.90998 12.1905C8.90998 12.1886 8.90998 12.1867 8.90998 12.1848C8.90998 12.1828 8.90998 12.1809 8.90998 12.179C8.90998 12.1771 8.90998 12.1752 8.90998 12.1733C8.90998 12.1714 8.90998 12.1695 8.90998 12.1677C8.90998 12.1658 8.90998 12.1639 8.90998 12.162C8.90998 12.1601 8.90998 12.1583 8.90998 12.1564C8.90998 12.1545 8.90998 12.1527 8.90998 12.1508C8.90998 12.1489 8.90998 12.1471 8.90998 12.1452C8.90998 12.1434 8.90998 12.1415 8.90998 12.1397C8.90998 12.1378 8.90998 12.136 8.90998 12.1342C8.90998 12.1323 8.90998 12.1305 8.90998 12.1287C8.90998 12.1268 8.90998 12.125 8.90998 12.1232C8.90998 12.1214 8.90998 12.1196 8.90998 12.1178C8.90998 12.116 8.90998 12.1142 8.90998 12.1124C8.90998 12.1106 8.90998 12.1088 8.90998 12.107C8.90998 12.1052 8.90998 12.1034 8.90998 12.1016C8.90998 12.0998 8.90998 12.0981 8.90998 12.0963C8.90998 12.0945 8.90998 12.0928 8.90998 12.091C8.90998 12.0892 8.90998 12.0875 8.90998 12.0857C8.90998 12.084 8.90998 12.0822 8.90998 12.0805C8.90998 12.0787 8.90998 12.077 8.90998 12.0753C8.90998 12.0735 8.90998 12.0718 8.90998 12.0701C8.90998 12.0684 8.90998 12.0666 8.90998 12.0649C8.90998 12.0632 8.90998 12.0615 8.90998 12.0598C8.90998 12.0581 8.90998 12.0564 8.90998 12.0547C8.90998 12.053 8.90998 12.0513 8.90998 12.0496C8.90998 12.0479 8.90998 12.0462 8.90998 12.0446C8.90998 12.0429 8.90998 12.0412 8.90998 12.0396C8.90998 12.0379 8.90998 12.0362 8.90998 12.0346C8.90998 12.0329 8.90998 12.0313 8.90998 12.0296C8.90998 12.028 8.90998 12.0263 8.90998 12.0247C8.90998 12.0231 8.90998 12.0214 8.90998 12.0198C8.90998 12.0182 8.90998 12.0166 8.90998 12.0149C8.90998 12.0133 8.90998 12.0117 8.90998 12.0101C8.90998 12.0085 8.90998 12.0069 8.90998 12.0053C8.90998 12.0037 8.90998 12.0021 8.90998 12.0005C8.90998 11.999 8.90998 11.9974 8.90998 11.9958C8.90998 11.9942 8.90998 11.9927 8.90998 11.9911C8.90998 11.9895 8.90998 11.988 8.90998 11.9864C8.90998 11.9849 8.90998 11.9833 8.90998 11.9818C8.90998 11.9802 8.90998 11.9787 8.90998 11.9771C8.90998 11.9756 8.90998 11.9741 8.90998 11.9726C8.90998 11.971 8.90998 11.9695 8.90998 11.968C8.90998 11.9665 8.90998 11.965 8.90998 11.9635C8.90998 11.962 8.90998 11.9605 8.90998 11.959C8.90998 11.9575 8.90998 11.956 8.90998 11.9545C8.90998 11.9531 8.90998 11.9516 8.90998 11.9501H8.15998ZM8.15998 14.88V14.13H1.91998V14.88V15.63H8.15998V14.88ZM1.91998 14.88V14.13C1.41447 14.13 0.849195 14.246 0.403383 14.6363C-0.0609189 15.0428 -0.27002 15.635 -0.27002 16.32H0.47998H1.22998C1.22998 15.94 1.33744 15.8122 1.39142 15.7649C1.46389 15.7015 1.61862 15.63 1.91998 15.63V14.88ZM0.47998 16.32H-0.27002V20.3079H0.47998H1.22998V16.32H0.47998ZM0.47998 20.3079H-0.27002C-0.27002 21.3851 0.691334 21.87 1.43998 21.87V21.12V20.37C1.3275 20.37 1.25869 20.3354 1.23448 20.3162C1.22457 20.3084 1.22552 20.3063 1.2285 20.3122C1.23215 20.3194 1.22998 20.3209 1.22998 20.3079H0.47998ZM1.43998 21.12V21.87H2.87998V21.12V20.37H1.43998V21.12ZM7.67998 21.12V21.87H16.32V21.12V20.37H7.67998V21.12ZM2.39998 14.88V15.63H18.24V14.88V14.13H2.39998V14.88ZM11.52 11.04H10.77V14.88H11.52H12.27V11.04H11.52Z" fill="#006C76"/>
</g>
<defs>
<clipPath id="clip0_76_888">
<rect width="24" height="24" fill="white"/>
</clipPath>
</defs>
</svg>
