<svg width="22" height="18" viewBox="0 0 22 18" fill="none" xmlns="http://www.w3.org/2000/svg">
<path d="M14.4153 1.38462C15.5487 1.38462 16.8348 1.836 17.5555 2.58785C18.4515 2.41338 19.2971 2.09423 20.0571 1.65185C19.7637 2.55254 19.1376 3.30854 18.3245 3.78623C19.1204 3.69138 19.8825 3.48577 20.5887 3.17769C20.0599 3.951 19.3924 4.63154 18.622 5.17638C18.6289 5.34115 18.633 5.50731 18.633 5.67346C18.633 10.7737 14.8073 16.6154 7.55499 16.6154C5.32945 16.6154 3.11495 16.0152 1.37193 14.9199C1.6798 14.9573 1.99389 14.9753 2.31143 14.9753C4.15869 14.9753 5.85891 14.3585 7.20984 13.3214C5.4827 13.2916 4.02615 12.1749 3.52637 10.6428C3.76591 10.6872 4.01442 10.7121 4.26845 10.7121C4.62603 10.7121 4.97601 10.6657 5.30598 10.5764C3.50221 10.224 2.14369 8.66354 2.14369 6.79362C2.14369 6.77562 2.14369 6.75969 2.14369 6.74308C2.67591 7.03246 3.28269 7.20692 3.92951 7.22769C2.87127 6.53331 2.17613 5.35431 2.17613 4.01469C2.17613 3.30715 2.37011 2.64323 2.70905 2.07554C4.65295 4.40792 7.55914 5.94554 10.8367 6.10754C10.7684 5.82508 10.7332 5.52738 10.7332 5.229C10.7332 3.09669 12.2366 1.38462 14.4153 1.38462ZM20.5887 3.17769H20.5921H20.5887ZM14.4153 0C11.7617 0 9.70944 1.90592 9.40156 4.536C7.20018 4.08808 5.1976 2.91046 3.759 1.18454C3.49738 0.870231 3.11219 0.690923 2.70905 0.690923C2.67315 0.690923 2.63726 0.692308 2.60136 0.695077C2.15957 0.730385 1.76195 0.978231 1.53346 1.36108C1.05646 2.16138 0.803806 3.07869 0.803806 4.01469C0.803806 4.63846 0.915635 5.247 1.12549 5.81538C0.901139 6.066 0.772052 6.39554 0.772052 6.74308V6.79362C0.772052 8.14985 1.3029 9.40777 2.18511 10.3514C2.13472 10.5882 2.14576 10.8381 2.22307 11.0755C2.52819 12.0102 3.08181 12.8146 3.79973 13.428C3.31721 13.536 2.8195 13.5907 2.31143 13.5907C2.0429 13.5907 1.78266 13.5755 1.5376 13.545C1.48169 13.5388 1.42646 13.5353 1.37124 13.5353C0.796212 13.5353 0.273651 13.9002 0.0782948 14.4595C-0.1357 15.0715 0.100385 15.7521 0.647107 16.0955C2.60205 17.3236 5.0554 18 7.55499 18C12.276 18 15.2077 15.8144 16.8355 13.9812C18.8097 11.7582 19.9584 8.80477 20.0033 5.85346C20.6432 5.31831 21.2079 4.70077 21.6862 4.00985C21.8595 3.77862 21.9624 3.48992 21.9624 3.17769C21.9624 2.70623 21.7297 2.29015 21.3742 2.03954C21.5282 1.50646 21.3514 0.929077 20.9221 0.576692C20.6715 0.371769 20.365 0.267231 20.0564 0.267231C19.821 0.267231 19.5843 0.328154 19.371 0.452769C18.9119 0.72 18.4211 0.930462 17.9041 1.08138C16.9542 0.409846 15.6654 0 14.4153 0Z" fill="#1F1D1D"/>
</svg>
