<svg width="24" height="24" viewBox="0 0 24 24" fill="none" xmlns="http://www.w3.org/2000/svg">
<path d="M4.50708 4.39118H19.6357M4.50708 8.3508H19.6357M4.50708 20.5401H19.6357M17.0968 6.51862L17.3296 6.07193M14.0395 5.73881V6.85174M12.3418 5.73881V6.85174M13.1906 5.73881V6.85174M5.40849 6.01894H9.99816M10.5165 14.4454C10.5165 13.5823 11.2151 12.8782 12.0714 12.8782M14.6855 14.7861C14.6855 16.2398 13.5137 17.0801 12.0714 17.0801C10.6291 17.0801 9.45732 15.8991 9.45732 14.4454C9.45732 12.9918 10.6291 11.8107 12.0714 11.8107C13.5362 11.8107 14.6855 12.8934 14.6855 14.1047M14.6855 13.9155H13.7165V14.9754H14.6254M18.3512 21.7741H5.78408C5.07797 21.7741 4.50708 21.1912 4.50708 20.4871V3.37667C4.50708 2.66499 5.08548 2.0896 5.78408 2.0896H18.3512C19.0573 2.0896 19.6282 2.67256 19.6282 3.37667V20.4871C19.6357 21.1912 19.0573 21.7741 18.3512 21.7741ZM18.0432 6.29149C18.0432 6.75144 17.6733 7.1243 17.2169 7.1243C16.7606 7.1243 16.3906 6.75144 16.3906 6.29149C16.3906 5.83155 16.7606 5.45868 17.2169 5.45868C17.6733 5.45868 18.0432 5.83155 18.0432 6.29149ZM9.56999 7.40443H5.83666C5.60379 7.40443 5.40849 7.20758 5.40849 6.97288V5.70096C5.40849 5.46626 5.60379 5.26941 5.83666 5.26941H9.56999C9.80285 5.26941 9.99816 5.46626 9.99816 5.70096V6.97288C9.99816 7.20758 9.80285 7.40443 9.56999 7.40443ZM16.4282 14.4454C16.4282 16.8706 14.4776 18.8366 12.0714 18.8366C9.6652 18.8366 7.71459 16.8706 7.71459 14.4454C7.71459 12.0203 9.6652 10.0543 12.0714 10.0543C14.4776 10.0543 16.4282 12.0203 16.4282 14.4454Z" stroke="#006C76" stroke-width="1.5" stroke-miterlimit="10"/>
</svg>
